<svg viewBox="0 0 500 500" xmlns="http://www.w3.org/2000/svg" class="mandala-svg-sm" aria-hidden="true">
<g class="mandala-sm-outer">
<path d="M 250.0,250.0 L 231.1,96.2 C 237.6,81.7 250.0,25.0 250.0,25.0 C 250.0,25.0 262.4,81.7 268.9,96.2 Z" fill="#8B6914" opacity="0.2"/>
<path d="M 250.0,250.0 L 271.6,96.5 C 281.6,84.2 308.2,32.7 308.2,32.7 C 308.2,32.7 305.5,90.6 308.1,106.3 Z" fill="#8B6914" opacity="0.2"/>
<path d="M 250.0,250.0 L 310.6,107.3 C 323.4,98.1 362.5,55.1 362.5,55.1 C 362.5,55.1 344.9,110.4 343.3,126.2 Z" fill="#8B6914" opacity="0.2"/>
<path d="M 250.0,250.0 L 345.4,127.9 C 360.3,122.3 409.1,90.9 409.1,90.9 C 409.1,90.9 377.7,139.7 372.1,154.6 Z" fill="#8B6914" opacity="0.2"/>
<path d="M 250.0,250.0 L 373.8,156.7 C 389.6,155.1 444.9,137.5 444.9,137.5 C 444.9,137.5 401.9,176.6 392.7,189.4 Z" fill="#8B6914" opacity="0.2"/>
<path d="M 250.0,250.0 L 393.7,191.9 C 409.4,194.5 467.3,191.8 467.3,191.8 C 467.3,191.8 415.8,218.4 403.5,228.4 Z" fill="#8B6914" opacity="0.2"/>
<path d="M 250.0,250.0 L 403.8,231.1 C 418.3,237.6 475.0,250.0 475.0,250.0 C 475.0,250.0 418.3,262.4 403.8,268.9 Z" fill="#8B6914" opacity="0.2"/>
<path d="M 250.0,250.0 L 403.5,271.6 C 415.8,281.6 467.3,308.2 467.3,308.2 C 467.3,308.2 409.4,305.5 393.7,308.1 Z" fill="#8B6914" opacity="0.2"/>
<path d="M 250.0,250.0 L 392.7,310.6 C 401.9,323.4 444.9,362.5 444.9,362.5 C 444.9,362.5 389.6,344.9 373.8,343.3 Z" fill="#8B6914" opacity="0.2"/>
<path d="M 250.0,250.0 L 372.1,345.4 C 377.7,360.3 409.1,409.1 409.1,409.1 C 409.1,409.1 360.3,377.7 345.4,372.1 Z" fill="#8B6914" opacity="0.2"/>
<path d="M 250.0,250.0 L 343.3,373.8 C 344.9,389.6 362.5,444.9 362.5,444.9 C 362.5,444.9 323.4,401.9 310.6,392.7 Z" fill="#8B6914" opacity="0.2"/>
<path d="M 250.0,250.0 L 308.1,393.7 C 305.5,409.4 308.2,467.3 308.2,467.3 C 308.2,467.3 281.6,415.8 271.6,403.5 Z" fill="#8B6914" opacity="0.2"/>
<path d="M 250.0,250.0 L 268.9,403.8 C 262.4,418.3 250.0,475.0 250.0,475.0 C 250.0,475.0 237.6,418.3 231.1,403.8 Z" fill="#8B6914" opacity="0.2"/>
<path d="M 250.0,250.0 L 228.4,403.5 C 218.4,415.8 191.8,467.3 191.8,467.3 C 191.8,467.3 194.5,409.4 191.9,393.7 Z" fill="#8B6914" opacity="0.2"/>
<path d="M 250.0,250.0 L 189.4,392.7 C 176.6,401.9 137.5,444.9 137.5,444.9 C 137.5,444.9 155.1,389.6 156.7,373.8 Z" fill="#8B6914" opacity="0.2"/>
<path d="M 250.0,250.0 L 154.6,372.1 C 139.7,377.7 90.9,409.1 90.9,409.1 C 90.9,409.1 122.3,360.3 127.9,345.4 Z" fill="#8B6914" opacity="0.2"/>
<path d="M 250.0,250.0 L 126.2,343.3 C 110.4,344.9 55.1,362.5 55.1,362.5 C 55.1,362.5 98.1,323.4 107.3,310.6 Z" fill="#8B6914" opacity="0.2"/>
<path d="M 250.0,250.0 L 106.3,308.1 C 90.6,305.5 32.7,308.2 32.7,308.2 C 32.7,308.2 84.2,281.6 96.5,271.6 Z" fill="#8B6914" opacity="0.2"/>
<path d="M 250.0,250.0 L 96.2,268.9 C 81.7,262.4 25.0,250.0 25.0,250.0 C 25.0,250.0 81.7,237.6 96.2,231.1 Z" fill="#8B6914" opacity="0.2"/>
<path d="M 250.0,250.0 L 96.5,228.4 C 84.2,218.4 32.7,191.8 32.7,191.8 C 32.7,191.8 90.6,194.5 106.3,191.9 Z" fill="#8B6914" opacity="0.2"/>
<path d="M 250.0,250.0 L 107.3,189.4 C 98.1,176.6 55.1,137.5 55.1,137.5 C 55.1,137.5 110.4,155.1 126.2,156.7 Z" fill="#8B6914" opacity="0.2"/>
<path d="M 250.0,250.0 L 127.9,154.6 C 122.3,139.7 90.9,90.9 90.9,90.9 C 90.9,90.9 139.7,122.3 154.6,127.9 Z" fill="#8B6914" opacity="0.2"/>
<path d="M 250.0,250.0 L 156.7,126.2 C 155.1,110.4 137.5,55.1 137.5,55.1 C 137.5,55.1 176.6,98.1 189.4,107.3 Z" fill="#8B6914" opacity="0.2"/>
<path d="M 250.0,250.0 L 191.9,106.3 C 194.5,90.6 191.8,32.7 191.8,32.7 C 191.8,32.7 218.4,84.2 228.4,96.5 Z" fill="#8B6914" opacity="0.2"/>
<path d="M 250.0,250.0 L 251.4,95.0 C 259.7,81.5 279.4,26.9 279.4,26.9 C 279.4,26.9 284.2,84.8 288.8,99.9 Z" fill="#C49A3C" opacity="0.13"/>
<path d="M 250.0,250.0 L 291.4,100.6 C 303.0,89.8 336.1,42.1 336.1,42.1 C 336.1,42.1 325.8,99.2 326.3,115.1 Z" fill="#C49A3C" opacity="0.13"/>
<path d="M 250.0,250.0 L 328.7,116.4 C 342.6,109.0 387.0,71.5 387.0,71.5 C 387.0,71.5 362.3,124.0 358.6,139.4 Z" fill="#C49A3C" opacity="0.13"/>
<path d="M 250.0,250.0 L 360.6,141.4 C 376.0,137.7 428.5,113.0 428.5,113.0 C 428.5,113.0 391.0,157.4 383.6,171.3 Z" fill="#C49A3C" opacity="0.13"/>
<path d="M 250.0,250.0 L 384.9,173.7 C 400.8,174.2 457.9,163.9 457.9,163.9 C 457.9,163.9 410.2,197.0 399.4,208.6 Z" fill="#C49A3C" opacity="0.13"/>
<path d="M 250.0,250.0 L 400.1,211.2 C 415.2,215.8 473.1,220.6 473.1,220.6 C 473.1,220.6 418.5,240.3 405.0,248.6 Z" fill="#C49A3C" opacity="0.13"/>
<path d="M 250.0,250.0 L 405.0,251.4 C 418.5,259.7 473.1,279.4 473.1,279.4 C 473.1,279.4 415.2,284.2 400.1,288.8 Z" fill="#C49A3C" opacity="0.13"/>
<path d="M 250.0,250.0 L 399.4,291.4 C 410.2,303.0 457.9,336.1 457.9,336.1 C 457.9,336.1 400.8,325.8 384.9,326.3 Z" fill="#C49A3C" opacity="0.13"/>
<path d="M 250.0,250.0 L 383.6,328.7 C 391.0,342.6 428.5,387.0 428.5,387.0 C 428.5,387.0 376.0,362.3 360.6,358.6 Z" fill="#C49A3C" opacity="0.13"/>
<path d="M 250.0,250.0 L 358.6,360.6 C 362.3,376.0 387.0,428.5 387.0,428.5 C 387.0,428.5 342.6,391.0 328.7,383.6 Z" fill="#C49A3C" opacity="0.13"/>
<path d="M 250.0,250.0 L 326.3,384.9 C 325.8,400.8 336.1,457.9 336.1,457.9 C 336.1,457.9 303.0,410.2 291.4,399.4 Z" fill="#C49A3C" opacity="0.13"/>
<path d="M 250.0,250.0 L 288.8,400.1 C 284.2,415.2 279.4,473.1 279.4,473.1 C 279.4,473.1 259.7,418.5 251.4,405.0 Z" fill="#C49A3C" opacity="0.13"/>
<path d="M 250.0,250.0 L 248.6,405.0 C 240.3,418.5 220.6,473.1 220.6,473.1 C 220.6,473.1 215.8,415.2 211.2,400.1 Z" fill="#C49A3C" opacity="0.13"/>
<path d="M 250.0,250.0 L 208.6,399.4 C 197.0,410.2 163.9,457.9 163.9,457.9 C 163.9,457.9 174.2,400.8 173.7,384.9 Z" fill="#C49A3C" opacity="0.13"/>
<path d="M 250.0,250.0 L 171.3,383.6 C 157.4,391.0 113.0,428.5 113.0,428.5 C 113.0,428.5 137.7,376.0 141.4,360.6 Z" fill="#C49A3C" opacity="0.13"/>
<path d="M 250.0,250.0 L 139.4,358.6 C 124.0,362.3 71.5,387.0 71.5,387.0 C 71.5,387.0 109.0,342.6 116.4,328.7 Z" fill="#C49A3C" opacity="0.13"/>
<path d="M 250.0,250.0 L 115.1,326.3 C 99.2,325.8 42.1,336.1 42.1,336.1 C 42.1,336.1 89.8,303.0 100.6,291.4 Z" fill="#C49A3C" opacity="0.13"/>
<path d="M 250.0,250.0 L 99.9,288.8 C 84.8,284.2 26.9,279.4 26.9,279.4 C 26.9,279.4 81.5,259.7 95.0,251.4 Z" fill="#C49A3C" opacity="0.13"/>
<path d="M 250.0,250.0 L 95.0,248.6 C 81.5,240.3 26.9,220.6 26.9,220.6 C 26.9,220.6 84.8,215.8 99.9,211.2 Z" fill="#C49A3C" opacity="0.13"/>
<path d="M 250.0,250.0 L 100.6,208.6 C 89.8,197.0 42.1,163.9 42.1,163.9 C 42.1,163.9 99.2,174.2 115.1,173.7 Z" fill="#C49A3C" opacity="0.13"/>
<path d="M 250.0,250.0 L 116.4,171.3 C 109.0,157.4 71.5,113.0 71.5,113.0 C 71.5,113.0 124.0,137.7 139.4,141.4 Z" fill="#C49A3C" opacity="0.13"/>
<path d="M 250.0,250.0 L 141.4,139.4 C 137.7,124.0 113.0,71.5 113.0,71.5 C 113.0,71.5 157.4,109.0 171.3,116.4 Z" fill="#C49A3C" opacity="0.13"/>
<path d="M 250.0,250.0 L 173.7,115.1 C 174.2,99.2 163.9,42.1 163.9,42.1 C 163.9,42.1 197.0,89.8 208.6,100.6 Z" fill="#C49A3C" opacity="0.13"/>
<path d="M 250.0,250.0 L 211.2,99.9 C 215.8,84.8 220.6,26.9 220.6,26.9 C 220.6,26.9 240.3,81.5 248.6,95.0 Z" fill="#C49A3C" opacity="0.13"/>
<circle cx="250" cy="250" r="225" fill="none" stroke="#8B6914" stroke-width="1.2" opacity="0.22"/>
<circle cx="250" cy="250" r="155" fill="none" stroke="#A07820" stroke-width="1" opacity="0.22"/>
<polygon points="250.0,120.0 362.6,315.0 137.4,315.0" fill="none" stroke="#A07820" stroke-width="1.4" opacity="0.25"/>
<polygon points="349.6,192.5 250.0,365.0 150.4,192.5" fill="none" stroke="#8B6914" stroke-width="1.4" opacity="0.22"/>
</g>
<g class="mandala-sm-inner">
<path d="M 250.0,250.0 L 236.2,201.9 C 236.2,168.7 250.0,140.0 250.0,140.0 C 250.0,140.0 263.8,168.7 263.8,201.9 Z" fill="#A07820" opacity="0.28"/>
<path d="M 250.0,250.0 L 274.2,206.3 C 297.8,182.8 327.8,172.2 327.8,172.2 C 327.8,172.2 317.2,202.2 293.7,225.8 Z" fill="#A07820" opacity="0.28"/>
<path d="M 250.0,250.0 L 298.1,236.2 C 331.3,236.2 360.0,250.0 360.0,250.0 C 360.0,250.0 331.3,263.8 298.1,263.8 Z" fill="#A07820" opacity="0.28"/>
<path d="M 250.0,250.0 L 293.7,274.2 C 317.2,297.8 327.8,327.8 327.8,327.8 C 327.8,327.8 297.8,317.2 274.2,293.7 Z" fill="#A07820" opacity="0.28"/>
<path d="M 250.0,250.0 L 263.8,298.1 C 263.8,331.3 250.0,360.0 250.0,360.0 C 250.0,360.0 236.2,331.3 236.2,298.1 Z" fill="#A07820" opacity="0.28"/>
<path d="M 250.0,250.0 L 225.8,293.7 C 202.2,317.2 172.2,327.8 172.2,327.8 C 172.2,327.8 182.8,297.8 206.3,274.2 Z" fill="#A07820" opacity="0.28"/>
<path d="M 250.0,250.0 L 201.9,263.8 C 168.7,263.8 140.0,250.0 140.0,250.0 C 140.0,250.0 168.7,236.2 201.9,236.2 Z" fill="#A07820" opacity="0.28"/>
<path d="M 250.0,250.0 L 206.3,225.8 C 182.8,202.2 172.2,172.2 172.2,172.2 C 172.2,172.2 202.2,182.8 225.8,206.3 Z" fill="#A07820" opacity="0.28"/>
<path d="M 250.0,250.0 L 251.4,218.0 C 257.1,211.7 269.9,202.0 269.9,202.0 C 269.9,202.0 272.1,217.9 271.6,226.4 Z" fill="#8B6914" opacity="0.35"/>
<path d="M 250.0,250.0 L 273.6,228.4 C 282.1,227.9 298.0,230.1 298.0,230.1 C 298.0,230.1 288.3,242.9 282.0,248.6 Z" fill="#8B6914" opacity="0.35"/>
<path d="M 250.0,250.0 L 282.0,251.4 C 288.3,257.1 298.0,269.9 298.0,269.9 C 298.0,269.9 282.1,272.1 273.6,271.6 Z" fill="#8B6914" opacity="0.35"/>
<path d="M 250.0,250.0 L 271.6,273.6 C 272.1,282.1 269.9,298.0 269.9,298.0 C 269.9,298.0 257.1,288.3 251.4,282.0 Z" fill="#8B6914" opacity="0.35"/>
<path d="M 250.0,250.0 L 248.6,282.0 C 242.9,288.3 230.1,298.0 230.1,298.0 C 230.1,298.0 227.9,282.1 228.4,273.6 Z" fill="#8B6914" opacity="0.35"/>
<path d="M 250.0,250.0 L 226.4,271.6 C 217.9,272.1 202.0,269.9 202.0,269.9 C 202.0,269.9 211.7,257.1 218.0,251.4 Z" fill="#8B6914" opacity="0.35"/>
<path d="M 250.0,250.0 L 218.0,248.6 C 211.7,242.9 202.0,230.1 202.0,230.1 C 202.0,230.1 217.9,227.9 226.4,228.4 Z" fill="#8B6914" opacity="0.35"/>
<path d="M 250.0,250.0 L 228.4,226.4 C 227.9,217.9 230.1,202.0 230.1,202.0 C 230.1,202.0 242.9,211.7 248.6,218.0 Z" fill="#8B6914" opacity="0.35"/>
<circle cx="250" cy="250" r="8" fill="#8B6914" opacity="0.75"/>
</g>
</svg>