<svg viewBox="0 0 500 500" xmlns="http://www.w3.org/2000/svg" class="mandala-svg" aria-hidden="true">
<circle cx="250" cy="250" r="230" fill="#6B4F2A" opacity="0.04"/>
<g class="mandala-outer-petals">
<path d="M 230.76,81.09 C 243.57,88.13 250.00,25.00 250.00,25.00 C 250.00,25.00 256.43,88.13 269.24,81.09 Z" fill="#8B6914" opacity="0.22"/>
<path d="M 275.13,81.87 C 285.68,91.98 308.23,32.67 308.23,32.67 C 308.23,32.67 298.11,95.31 312.31,91.83 Z" fill="#8B6914" opacity="0.22"/>
<path d="M 317.79,94.10 C 325.37,106.60 362.50,55.14 362.50,55.14 C 362.50,55.14 336.51,113.03 351.12,113.34 Z" fill="#8B6914" opacity="0.22"/>
<path d="M 355.83,116.96 C 359.91,130.99 409.10,90.90 409.10,90.90 C 409.10,90.90 369.01,140.09 383.04,144.17 Z" fill="#8B6914" opacity="0.22"/>
<path d="M 386.66,148.88 C 386.97,163.49 444.86,137.50 444.86,137.50 C 444.86,137.50 393.40,174.63 405.90,182.21 Z" fill="#8B6914" opacity="0.22"/>
<path d="M 408.17,187.69 C 404.69,201.89 467.33,191.77 467.33,191.77 C 467.33,191.77 408.02,214.32 418.13,224.87 Z" fill="#8B6914" opacity="0.22"/>
<path d="M 418.91,230.76 C 411.87,243.57 475.00,250.00 475.00,250.00 C 475.00,250.00 411.87,256.43 418.91,269.24 Z" fill="#8B6914" opacity="0.22"/>
<path d="M 418.13,275.13 C 408.02,285.68 467.33,308.23 467.33,308.23 C 467.33,308.23 404.69,298.11 408.17,312.31 Z" fill="#8B6914" opacity="0.22"/>
<path d="M 405.90,317.79 C 393.40,325.37 444.86,362.50 444.86,362.50 C 444.86,362.50 386.97,336.51 386.66,351.12 Z" fill="#8B6914" opacity="0.22"/>
<path d="M 383.04,355.83 C 369.01,359.91 409.10,409.10 409.10,409.10 C 409.10,409.10 359.91,369.01 355.83,383.04 Z" fill="#8B6914" opacity="0.22"/>
<path d="M 351.12,386.66 C 336.51,386.97 362.50,444.86 362.50,444.86 C 362.50,444.86 325.37,393.40 317.79,405.90 Z" fill="#8B6914" opacity="0.22"/>
<path d="M 312.31,408.17 C 298.11,404.69 308.23,467.33 308.23,467.33 C 308.23,467.33 285.68,408.02 275.13,418.13 Z" fill="#8B6914" opacity="0.22"/>
<path d="M 269.24,418.91 C 256.43,411.87 250.00,475.00 250.00,475.00 C 250.00,475.00 243.57,411.87 230.76,418.91 Z" fill="#8B6914" opacity="0.22"/>
<path d="M 224.87,418.13 C 214.32,408.02 191.77,467.33 191.77,467.33 C 191.77,467.33 201.89,404.69 187.69,408.17 Z" fill="#8B6914" opacity="0.22"/>
<path d="M 182.21,405.90 C 174.63,393.40 137.50,444.86 137.50,444.86 C 137.50,444.86 163.49,386.97 148.88,386.66 Z" fill="#8B6914" opacity="0.22"/>
<path d="M 144.17,383.04 C 140.09,369.01 90.90,409.10 90.90,409.10 C 90.90,409.10 130.99,359.91 116.96,355.83 Z" fill="#8B6914" opacity="0.22"/>
<path d="M 113.34,351.12 C 113.03,336.51 55.14,362.50 55.14,362.50 C 55.14,362.50 106.60,325.37 94.10,317.79 Z" fill="#8B6914" opacity="0.22"/>
<path d="M 91.83,312.31 C 95.31,298.11 32.67,308.23 32.67,308.23 C 32.67,308.23 91.98,285.68 81.87,275.13 Z" fill="#8B6914" opacity="0.22"/>
<path d="M 81.09,269.24 C 88.13,256.43 25.00,250.00 25.00,250.00 C 25.00,250.00 88.13,243.57 81.09,230.76 Z" fill="#8B6914" opacity="0.22"/>
<path d="M 81.87,224.87 C 91.98,214.32 32.67,191.77 32.67,191.77 C 32.67,191.77 95.31,201.89 91.83,187.69 Z" fill="#8B6914" opacity="0.22"/>
<path d="M 94.10,182.21 C 106.60,174.63 55.14,137.50 55.14,137.50 C 55.14,137.50 113.03,163.49 113.34,148.88 Z" fill="#8B6914" opacity="0.22"/>
<path d="M 116.96,144.17 C 130.99,140.09 90.90,90.90 90.90,90.90 C 90.90,90.90 140.09,130.99 144.17,116.96 Z" fill="#8B6914" opacity="0.22"/>
<path d="M 148.88,113.34 C 163.49,113.03 137.50,55.14 137.50,55.14 C 137.50,55.14 174.63,106.60 182.21,94.10 Z" fill="#8B6914" opacity="0.22"/>
<path d="M 187.69,91.83 C 201.89,95.31 191.77,32.67 191.77,32.67 C 191.77,32.67 214.32,91.98 224.87,81.87 Z" fill="#8B6914" opacity="0.22"/>
<path d="M 252.97,80.03 C 264.75,88.67 279.37,26.92 279.37,26.92 C 279.37,26.92 277.50,90.35 291.13,85.05 Z" fill="#C49A4A" opacity="0.12"/>
<path d="M 296.86,86.59 C 306.00,97.99 336.10,42.13 336.10,42.13 C 336.10,42.13 317.89,102.91 332.42,101.31 Z" fill="#C49A4A" opacity="0.12"/>
<path d="M 337.56,104.28 C 343.44,117.66 386.97,71.50 386.97,71.50 C 386.97,71.50 353.64,125.49 368.09,127.71 Z" fill="#C49A4A" opacity="0.12"/>
<path d="M 372.29,131.91 C 374.51,146.36 428.50,113.03 428.50,113.03 C 428.50,113.03 382.34,156.56 395.72,162.44 Z" fill="#C49A4A" opacity="0.12"/>
<path d="M 398.69,167.58 C 397.09,182.11 457.87,163.90 457.87,163.90 C 457.87,163.90 402.01,194.00 413.41,203.14 Z" fill="#C49A4A" opacity="0.12"/>
<path d="M 414.95,208.87 C 409.65,222.50 473.08,220.63 473.08,220.63 C 473.08,220.63 411.33,235.25 419.97,247.03 Z" fill="#C49A4A" opacity="0.12"/>
<path d="M 419.97,252.97 C 411.33,264.75 473.08,279.37 473.08,279.37 C 473.08,279.37 409.65,277.50 414.95,291.13 Z" fill="#C49A4A" opacity="0.12"/>
<path d="M 413.41,296.86 C 402.01,306.00 457.87,336.10 457.87,336.10 C 457.87,336.10 397.09,317.89 398.69,332.42 Z" fill="#C49A4A" opacity="0.12"/>
<path d="M 395.72,337.56 C 382.34,343.44 428.50,386.97 428.50,386.97 C 428.50,386.97 374.51,353.64 372.29,368.09 Z" fill="#C49A4A" opacity="0.12"/>
<path d="M 368.09,372.29 C 353.64,374.51 386.97,428.50 386.97,428.50 C 386.97,428.50 343.44,382.34 337.56,395.72 Z" fill="#C49A4A" opacity="0.12"/>
<path d="M 332.42,398.69 C 317.89,397.09 336.10,457.87 336.10,457.87 C 336.10,457.87 306.00,402.01 296.86,413.41 Z" fill="#C49A4A" opacity="0.12"/>
<path d="M 291.13,414.95 C 277.50,409.65 279.37,473.08 279.37,473.08 C 279.37,473.08 264.75,411.33 252.97,419.97 Z" fill="#C49A4A" opacity="0.12"/>
<path d="M 247.03,419.97 C 235.25,411.33 220.63,473.08 220.63,473.08 C 220.63,473.08 222.50,409.65 208.87,414.95 Z" fill="#C49A4A" opacity="0.12"/>
<path d="M 203.14,413.41 C 194.00,402.01 163.90,457.87 163.90,457.87 C 163.90,457.87 182.11,397.09 167.58,398.69 Z" fill="#C49A4A" opacity="0.12"/>
<path d="M 162.44,395.72 C 156.56,382.34 113.03,428.50 113.03,428.50 C 113.03,428.50 146.36,374.51 131.91,372.29 Z" fill="#C49A4A" opacity="0.12"/>
<path d="M 127.71,368.09 C 125.49,353.64 71.50,386.97 71.50,386.97 C 71.50,386.97 117.66,343.44 104.28,337.56 Z" fill="#C49A4A" opacity="0.12"/>
<path d="M 101.31,332.42 C 102.91,317.89 42.13,336.10 42.13,336.10 C 42.13,336.10 97.99,306.00 86.59,296.86 Z" fill="#C49A4A" opacity="0.12"/>
<path d="M 85.05,291.13 C 90.35,277.50 26.92,279.37 26.92,279.37 C 26.92,279.37 88.67,264.75 80.03,252.97 Z" fill="#C49A4A" opacity="0.12"/>
<path d="M 80.03,247.03 C 88.67,235.25 26.92,220.63 26.92,220.63 C 26.92,220.63 90.35,222.50 85.05,208.87 Z" fill="#C49A4A" opacity="0.12"/>
<path d="M 86.59,203.14 C 97.99,194.00 42.13,163.90 42.13,163.90 C 42.13,163.90 102.91,182.11 101.31,167.58 Z" fill="#C49A4A" opacity="0.12"/>
<path d="M 104.28,162.44 C 117.66,156.56 71.50,113.03 71.50,113.03 C 71.50,113.03 125.49,146.36 127.71,131.91 Z" fill="#C49A4A" opacity="0.12"/>
<path d="M 131.91,127.71 C 146.36,125.49 113.03,71.50 113.03,71.50 C 113.03,71.50 156.56,117.66 162.44,104.28 Z" fill="#C49A4A" opacity="0.12"/>
<path d="M 167.58,101.31 C 182.11,102.91 163.90,42.13 163.90,42.13 C 163.90,42.13 194.00,97.99 203.14,86.59 Z" fill="#C49A4A" opacity="0.12"/>
<path d="M 208.87,85.05 C 222.50,90.35 220.63,26.92 220.63,26.92 C 220.63,26.92 235.25,88.67 247.03,80.03 Z" fill="#C49A4A" opacity="0.12"/>
<circle cx="250.00" cy="86.00" r="2.0" fill="#A87C2A" opacity="0.35"/>
<circle cx="292.45" cy="91.59" r="2.0" fill="#A87C2A" opacity="0.35"/>
<circle cx="332.00" cy="107.97" r="2.0" fill="#A87C2A" opacity="0.35"/>
<circle cx="365.97" cy="134.03" r="2.0" fill="#A87C2A" opacity="0.35"/>
<circle cx="392.03" cy="168.00" r="2.0" fill="#A87C2A" opacity="0.35"/>
<circle cx="408.41" cy="207.55" r="2.0" fill="#A87C2A" opacity="0.35"/>
<circle cx="414.00" cy="250.00" r="2.0" fill="#A87C2A" opacity="0.35"/>
<circle cx="408.41" cy="292.45" r="2.0" fill="#A87C2A" opacity="0.35"/>
<circle cx="392.03" cy="332.00" r="2.0" fill="#A87C2A" opacity="0.35"/>
<circle cx="365.97" cy="365.97" r="2.0" fill="#A87C2A" opacity="0.35"/>
<circle cx="332.00" cy="392.03" r="2.0" fill="#A87C2A" opacity="0.35"/>
<circle cx="292.45" cy="408.41" r="2.0" fill="#A87C2A" opacity="0.35"/>
<circle cx="250.00" cy="414.00" r="2.0" fill="#A87C2A" opacity="0.35"/>
<circle cx="207.55" cy="408.41" r="2.0" fill="#A87C2A" opacity="0.35"/>
<circle cx="168.00" cy="392.03" r="2.0" fill="#A87C2A" opacity="0.35"/>
<circle cx="134.03" cy="365.97" r="2.0" fill="#A87C2A" opacity="0.35"/>
<circle cx="107.97" cy="332.00" r="2.0" fill="#A87C2A" opacity="0.35"/>
<circle cx="91.59" cy="292.45" r="2.0" fill="#A87C2A" opacity="0.35"/>
<circle cx="86.00" cy="250.00" r="2.0" fill="#A87C2A" opacity="0.35"/>
<circle cx="91.59" cy="207.55" r="2.0" fill="#A87C2A" opacity="0.35"/>
<circle cx="107.97" cy="168.00" r="2.0" fill="#A87C2A" opacity="0.35"/>
<circle cx="134.03" cy="134.03" r="2.0" fill="#A87C2A" opacity="0.35"/>
<circle cx="168.00" cy="107.97" r="2.0" fill="#A87C2A" opacity="0.35"/>
<circle cx="207.55" cy="91.59" r="2.0" fill="#A87C2A" opacity="0.35"/>
<circle cx="250" cy="250" r="164" fill="none" stroke="#8B6914" stroke-width="1.0" opacity="0.28"/>
<circle cx="250" cy="250" r="228" fill="none" stroke="#8B6914" stroke-width="0.8" opacity="0.2"/>
</g>
<g class="mandala-triangles">
<path d="M 232.48,139.38 C 243.67,134.97 250.00,90.00 250.00,90.00 C 250.00,90.00 256.33,134.97 267.52,139.38 Z" fill="#6B4F2A" opacity="0.26"/>
<path d="M 276.15,141.09 C 288.17,141.31 311.23,102.18 311.23,102.18 C 311.23,102.18 299.87,146.15 308.52,154.50 Z" fill="#6B4F2A" opacity="0.26"/>
<path d="M 315.83,159.39 C 326.86,164.19 363.14,136.86 363.14,136.86 C 363.14,136.86 335.81,173.14 340.61,184.17 Z" fill="#6B4F2A" opacity="0.26"/>
<path d="M 345.50,191.48 C 353.85,200.13 397.82,188.77 397.82,188.77 C 397.82,188.77 358.69,211.83 358.91,223.85 Z" fill="#6B4F2A" opacity="0.26"/>
<path d="M 360.62,232.48 C 365.03,243.67 410.00,250.00 410.00,250.00 C 410.00,250.00 365.03,256.33 360.62,267.52 Z" fill="#6B4F2A" opacity="0.26"/>
<path d="M 358.91,276.15 C 358.69,288.17 397.82,311.23 397.82,311.23 C 397.82,311.23 353.85,299.87 345.50,308.52 Z" fill="#6B4F2A" opacity="0.26"/>
<path d="M 340.61,315.83 C 335.81,326.86 363.14,363.14 363.14,363.14 C 363.14,363.14 326.86,335.81 315.83,340.61 Z" fill="#6B4F2A" opacity="0.26"/>
<path d="M 308.52,345.50 C 299.87,353.85 311.23,397.82 311.23,397.82 C 311.23,397.82 288.17,358.69 276.15,358.91 Z" fill="#6B4F2A" opacity="0.26"/>
<path d="M 267.52,360.62 C 256.33,365.03 250.00,410.00 250.00,410.00 C 250.00,410.00 243.67,365.03 232.48,360.62 Z" fill="#6B4F2A" opacity="0.26"/>
<path d="M 223.85,358.91 C 211.83,358.69 188.77,397.82 188.77,397.82 C 188.77,397.82 200.13,353.85 191.48,345.50 Z" fill="#6B4F2A" opacity="0.26"/>
<path d="M 184.17,340.61 C 173.14,335.81 136.86,363.14 136.86,363.14 C 136.86,363.14 164.19,326.86 159.39,315.83 Z" fill="#6B4F2A" opacity="0.26"/>
<path d="M 154.50,308.52 C 146.15,299.87 102.18,311.23 102.18,311.23 C 102.18,311.23 141.31,288.17 141.09,276.15 Z" fill="#6B4F2A" opacity="0.26"/>
<path d="M 139.38,267.52 C 134.97,256.33 90.00,250.00 90.00,250.00 C 90.00,250.00 134.97,243.67 139.38,232.48 Z" fill="#6B4F2A" opacity="0.26"/>
<path d="M 141.09,223.85 C 141.31,211.83 102.18,188.77 102.18,188.77 C 102.18,188.77 146.15,200.13 154.50,191.48 Z" fill="#6B4F2A" opacity="0.26"/>
<path d="M 159.39,184.17 C 164.19,173.14 136.86,136.86 136.86,136.86 C 136.86,136.86 173.14,164.19 184.17,159.39 Z" fill="#6B4F2A" opacity="0.26"/>
<path d="M 191.48,154.50 C 200.13,146.15 188.77,102.18 188.77,102.18 C 188.77,102.18 211.83,141.31 223.85,141.09 Z" fill="#6B4F2A" opacity="0.26"/>
<path d="M 254.40,138.09 C 266.23,135.95 281.21,93.07 281.21,93.07 C 281.21,93.07 278.65,138.42 288.77,144.92 Z" fill="#A87C2A" opacity="0.15"/>
<path d="M 296.89,148.29 C 308.64,150.84 338.89,116.96 338.89,116.96 C 338.89,116.96 319.17,157.88 326.03,167.76 Z" fill="#A87C2A" opacity="0.15"/>
<path d="M 332.24,173.97 C 342.12,180.83 383.04,161.11 383.04,161.11 C 383.04,161.11 349.16,191.36 351.71,203.11 Z" fill="#A87C2A" opacity="0.15"/>
<path d="M 355.08,211.23 C 361.58,221.35 406.93,218.79 406.93,218.79 C 406.93,218.79 364.05,233.77 361.91,245.60 Z" fill="#A87C2A" opacity="0.15"/>
<path d="M 361.91,254.40 C 364.05,266.23 406.93,281.21 406.93,281.21 C 406.93,281.21 361.58,278.65 355.08,288.77 Z" fill="#A87C2A" opacity="0.15"/>
<path d="M 351.71,296.89 C 349.16,308.64 383.04,338.89 383.04,338.89 C 383.04,338.89 342.12,319.17 332.24,326.03 Z" fill="#A87C2A" opacity="0.15"/>
<path d="M 326.03,332.24 C 319.17,342.12 338.89,383.04 338.89,383.04 C 338.89,383.04 308.64,349.16 296.89,351.71 Z" fill="#A87C2A" opacity="0.15"/>
<path d="M 288.77,355.08 C 278.65,361.58 281.21,406.93 281.21,406.93 C 281.21,406.93 266.23,364.05 254.40,361.91 Z" fill="#A87C2A" opacity="0.15"/>
<path d="M 245.60,361.91 C 233.77,364.05 218.79,406.93 218.79,406.93 C 218.79,406.93 221.35,361.58 211.23,355.08 Z" fill="#A87C2A" opacity="0.15"/>
<path d="M 203.11,351.71 C 191.36,349.16 161.11,383.04 161.11,383.04 C 161.11,383.04 180.83,342.12 173.97,332.24 Z" fill="#A87C2A" opacity="0.15"/>
<path d="M 167.76,326.03 C 157.88,319.17 116.96,338.89 116.96,338.89 C 116.96,338.89 150.84,308.64 148.29,296.89 Z" fill="#A87C2A" opacity="0.15"/>
<path d="M 144.92,288.77 C 138.42,278.65 93.07,281.21 93.07,281.21 C 93.07,281.21 135.95,266.23 138.09,254.40 Z" fill="#A87C2A" opacity="0.15"/>
<path d="M 138.09,245.60 C 135.95,233.77 93.07,218.79 93.07,218.79 C 93.07,218.79 138.42,221.35 144.92,211.23 Z" fill="#A87C2A" opacity="0.15"/>
<path d="M 148.29,203.11 C 150.84,191.36 116.96,161.11 116.96,161.11 C 116.96,161.11 157.88,180.83 167.76,173.97 Z" fill="#A87C2A" opacity="0.15"/>
<path d="M 173.97,167.76 C 180.83,157.88 161.11,116.96 161.11,116.96 C 161.11,116.96 191.36,150.84 203.11,148.29 Z" fill="#A87C2A" opacity="0.15"/>
<path d="M 211.23,144.92 C 221.35,138.42 218.79,93.07 218.79,93.07 C 218.79,93.07 233.77,135.95 245.60,138.09 Z" fill="#A87C2A" opacity="0.15"/>
<circle cx="250.00" cy="142.00" r="2.5" fill="#8B6914" opacity="0.4"/>
<circle cx="291.33" cy="150.22" r="2.5" fill="#8B6914" opacity="0.4"/>
<circle cx="326.37" cy="173.63" r="2.5" fill="#8B6914" opacity="0.4"/>
<circle cx="349.78" cy="208.67" r="2.5" fill="#8B6914" opacity="0.4"/>
<circle cx="358.00" cy="250.00" r="2.5" fill="#8B6914" opacity="0.4"/>
<circle cx="349.78" cy="291.33" r="2.5" fill="#8B6914" opacity="0.4"/>
<circle cx="326.37" cy="326.37" r="2.5" fill="#8B6914" opacity="0.4"/>
<circle cx="291.33" cy="349.78" r="2.5" fill="#8B6914" opacity="0.4"/>
<circle cx="250.00" cy="358.00" r="2.5" fill="#8B6914" opacity="0.4"/>
<circle cx="208.67" cy="349.78" r="2.5" fill="#8B6914" opacity="0.4"/>
<circle cx="173.63" cy="326.37" r="2.5" fill="#8B6914" opacity="0.4"/>
<circle cx="150.22" cy="291.33" r="2.5" fill="#8B6914" opacity="0.4"/>
<circle cx="142.00" cy="250.00" r="2.5" fill="#8B6914" opacity="0.4"/>
<circle cx="150.22" cy="208.67" r="2.5" fill="#8B6914" opacity="0.4"/>
<circle cx="173.63" cy="173.63" r="2.5" fill="#8B6914" opacity="0.4"/>
<circle cx="208.67" cy="150.22" r="2.5" fill="#8B6914" opacity="0.4"/>
<circle cx="250" cy="250" r="108" fill="none" stroke="#8B6914" stroke-width="1.0" opacity="0.3"/>
<polygon points="250.0,162.0 326.2,294.0 173.8,294.0"  fill="none" stroke="#8B6914"  stroke-width="1.2" stroke-linejoin="round" opacity="0.22"/>
<polygon points="326.2,206.0 250.0,338.0 173.8,206.0" fill="none" stroke="#A87C2A" stroke-width="1.2" stroke-linejoin="round" opacity="0.20"/>
<circle cx="250" cy="250" r="94" fill="none" stroke="#6B4F2A" stroke-width="0.8" opacity="0.22"/>
</g>
<g class="mandala-inner-lotus">
<path d="M 237.14,207.92 C 242.54,178.39 250.00,150.00 250.00,150.00 C 250.00,150.00 257.46,178.39 262.86,207.92 Z" fill="#6B4F2A" opacity="0.32"/>
<path d="M 270.66,211.15 C 295.36,194.09 320.71,179.29 320.71,179.29 C 320.71,179.29 305.91,204.64 288.85,229.34 Z" fill="#6B4F2A" opacity="0.32"/>
<path d="M 292.08,237.14 C 321.61,242.54 350.00,250.00 350.00,250.00 C 350.00,250.00 321.61,257.46 292.08,262.86 Z" fill="#6B4F2A" opacity="0.32"/>
<path d="M 288.85,270.66 C 305.91,295.36 320.71,320.71 320.71,320.71 C 320.71,320.71 295.36,305.91 270.66,288.85 Z" fill="#6B4F2A" opacity="0.32"/>
<path d="M 262.86,292.08 C 257.46,321.61 250.00,350.00 250.00,350.00 C 250.00,350.00 242.54,321.61 237.14,292.08 Z" fill="#6B4F2A" opacity="0.32"/>
<path d="M 229.34,288.85 C 204.64,305.91 179.29,320.71 179.29,320.71 C 179.29,320.71 194.09,295.36 211.15,270.66 Z" fill="#6B4F2A" opacity="0.32"/>
<path d="M 207.92,262.86 C 178.39,257.46 150.00,250.00 150.00,250.00 C 150.00,250.00 178.39,242.54 207.92,237.14 Z" fill="#6B4F2A" opacity="0.32"/>
<path d="M 211.15,229.34 C 194.09,204.64 179.29,179.29 179.29,179.29 C 179.29,179.29 204.64,194.09 229.34,211.15 Z" fill="#6B4F2A" opacity="0.32"/>
<path d="M 254.22,206.20 C 270.51,180.98 288.27,157.61 288.27,157.61 C 288.27,157.61 284.30,186.70 277.99,216.05 Z" fill="#A87C2A" opacity="0.18"/>
<path d="M 283.95,222.01 C 313.30,215.70 342.39,211.73 342.39,211.73 C 342.39,211.73 319.02,229.49 293.80,245.78 Z" fill="#A87C2A" opacity="0.18"/>
<path d="M 293.80,254.22 C 319.02,270.51 342.39,288.27 342.39,288.27 C 342.39,288.27 313.30,284.30 283.95,277.99 Z" fill="#A87C2A" opacity="0.18"/>
<path d="M 277.99,283.95 C 284.30,313.30 288.27,342.39 288.27,342.39 C 288.27,342.39 270.51,319.02 254.22,293.80 Z" fill="#A87C2A" opacity="0.18"/>
<path d="M 245.78,293.80 C 229.49,319.02 211.73,342.39 211.73,342.39 C 211.73,342.39 215.70,313.30 222.01,283.95 Z" fill="#A87C2A" opacity="0.18"/>
<path d="M 216.05,277.99 C 186.70,284.30 157.61,288.27 157.61,288.27 C 157.61,288.27 180.98,270.51 206.20,254.22 Z" fill="#A87C2A" opacity="0.18"/>
<path d="M 206.20,245.78 C 180.98,229.49 157.61,211.73 157.61,211.73 C 157.61,211.73 186.70,215.70 216.05,222.01 Z" fill="#A87C2A" opacity="0.18"/>
<path d="M 222.01,216.05 C 215.70,186.70 211.73,157.61 211.73,157.61 C 211.73,157.61 229.49,180.98 245.78,206.20 Z" fill="#A87C2A" opacity="0.18"/>
<path d="M 239.51,224.04 C 245.56,217.18 250.00,204.00 250.00,204.00 C 250.00,204.00 254.44,217.18 260.49,224.04 Z" fill="#8B6914" opacity="0.4"/>
<path d="M 260.94,224.23 C 270.07,223.65 282.53,217.47 282.53,217.47 C 282.53,217.47 276.35,229.93 275.77,239.06 Z" fill="#8B6914" opacity="0.4"/>
<path d="M 275.96,239.51 C 282.82,245.56 296.00,250.00 296.00,250.00 C 296.00,250.00 282.82,254.44 275.96,260.49 Z" fill="#8B6914" opacity="0.4"/>
<path d="M 275.77,260.94 C 276.35,270.07 282.53,282.53 282.53,282.53 C 282.53,282.53 270.07,276.35 260.94,275.77 Z" fill="#8B6914" opacity="0.4"/>
<path d="M 260.49,275.96 C 254.44,282.82 250.00,296.00 250.00,296.00 C 250.00,296.00 245.56,282.82 239.51,275.96 Z" fill="#8B6914" opacity="0.4"/>
<path d="M 239.06,275.77 C 229.93,276.35 217.47,282.53 217.47,282.53 C 217.47,282.53 223.65,270.07 224.23,260.94 Z" fill="#8B6914" opacity="0.4"/>
<path d="M 224.04,260.49 C 217.18,254.44 204.00,250.00 204.00,250.00 C 204.00,250.00 217.18,245.56 224.04,239.51 Z" fill="#8B6914" opacity="0.4"/>
<path d="M 224.23,239.06 C 223.65,229.93 217.47,217.47 217.47,217.47 C 217.47,217.47 229.93,223.65 239.06,224.23 Z" fill="#8B6914" opacity="0.4"/>
<circle cx="250.00" cy="208.00" r="3.0" fill="#A87C2A" opacity="0.5"/>
<circle cx="279.70" cy="220.30" r="3.0" fill="#A87C2A" opacity="0.5"/>
<circle cx="292.00" cy="250.00" r="3.0" fill="#A87C2A" opacity="0.5"/>
<circle cx="279.70" cy="279.70" r="3.0" fill="#A87C2A" opacity="0.5"/>
<circle cx="250.00" cy="292.00" r="3.0" fill="#A87C2A" opacity="0.5"/>
<circle cx="220.30" cy="279.70" r="3.0" fill="#A87C2A" opacity="0.5"/>
<circle cx="208.00" cy="250.00" r="3.0" fill="#A87C2A" opacity="0.5"/>
<circle cx="220.30" cy="220.30" r="3.0" fill="#A87C2A" opacity="0.5"/>
<circle cx="250" cy="250" r="44" fill="none" stroke="#8B6914" stroke-width="1.2" opacity="0.38"/>
</g>
<g class="mandala-bindu">
<circle cx="250" cy="250" r="20" fill="#8B6914"  opacity="0.25"/>
<circle cx="250" cy="250" r="13" fill="#A87C2A" opacity="0.45"/>
<circle cx="250" cy="250" r="6"  fill="#6B4F2A" opacity="0.80"/>
</g>
</svg>