<svg viewBox="0 0 500 500" xmlns="http://www.w3.org/2000/svg" class="mandala-svg-sm" aria-hidden="true">
<g class="mandala-sm-outer">
<path d="M 229.38,93.35 C 242.68,90.33 250.00,28.00 250.00,28.00 C 250.00,28.00 257.32,90.33 270.62,93.35 Z" fill="#8B6914" opacity="0.22"/>
<path d="M 278.79,94.65 C 292.38,95.88 318.60,38.87 318.60,38.87 C 318.60,38.87 306.30,100.40 318.02,107.39 Z" fill="#8B6914" opacity="0.22"/>
<path d="M 325.39,111.15 C 337.93,116.52 380.49,70.40 380.49,70.40 C 380.49,70.40 349.78,125.13 358.76,135.39 Z" fill="#8B6914" opacity="0.22"/>
<path d="M 364.61,141.24 C 374.87,150.22 429.60,119.51 429.60,119.51 C 429.60,119.51 383.48,162.07 388.85,174.61 Z" fill="#8B6914" opacity="0.22"/>
<path d="M 392.61,181.98 C 399.60,193.70 461.13,181.40 461.13,181.40 C 461.13,181.40 404.12,207.62 405.35,221.21 Z" fill="#8B6914" opacity="0.22"/>
<path d="M 406.65,229.38 C 409.67,242.68 472.00,250.00 472.00,250.00 C 472.00,250.00 409.67,257.32 406.65,270.62 Z" fill="#8B6914" opacity="0.22"/>
<path d="M 405.35,278.79 C 404.12,292.38 461.13,318.60 461.13,318.60 C 461.13,318.60 399.60,306.30 392.61,318.02 Z" fill="#8B6914" opacity="0.22"/>
<path d="M 388.85,325.39 C 383.48,337.93 429.60,380.49 429.60,380.49 C 429.60,380.49 374.87,349.78 364.61,358.76 Z" fill="#8B6914" opacity="0.22"/>
<path d="M 358.76,364.61 C 349.78,374.87 380.49,429.60 380.49,429.60 C 380.49,429.60 337.93,383.48 325.39,388.85 Z" fill="#8B6914" opacity="0.22"/>
<path d="M 318.02,392.61 C 306.30,399.60 318.60,461.13 318.60,461.13 C 318.60,461.13 292.38,404.12 278.79,405.35 Z" fill="#8B6914" opacity="0.22"/>
<path d="M 270.62,406.65 C 257.32,409.67 250.00,472.00 250.00,472.00 C 250.00,472.00 242.68,409.67 229.38,406.65 Z" fill="#8B6914" opacity="0.22"/>
<path d="M 221.21,405.35 C 207.62,404.12 181.40,461.13 181.40,461.13 C 181.40,461.13 193.70,399.60 181.98,392.61 Z" fill="#8B6914" opacity="0.22"/>
<path d="M 174.61,388.85 C 162.07,383.48 119.51,429.60 119.51,429.60 C 119.51,429.60 150.22,374.87 141.24,364.61 Z" fill="#8B6914" opacity="0.22"/>
<path d="M 135.39,358.76 C 125.13,349.78 70.40,380.49 70.40,380.49 C 70.40,380.49 116.52,337.93 111.15,325.39 Z" fill="#8B6914" opacity="0.22"/>
<path d="M 107.39,318.02 C 100.40,306.30 38.87,318.60 38.87,318.60 C 38.87,318.60 95.88,292.38 94.65,278.79 Z" fill="#8B6914" opacity="0.22"/>
<path d="M 93.35,270.62 C 90.33,257.32 28.00,250.00 28.00,250.00 C 28.00,250.00 90.33,242.68 93.35,229.38 Z" fill="#8B6914" opacity="0.22"/>
<path d="M 94.65,221.21 C 95.88,207.62 38.87,181.40 38.87,181.40 C 38.87,181.40 100.40,193.70 107.39,181.98 Z" fill="#8B6914" opacity="0.22"/>
<path d="M 111.15,174.61 C 116.52,162.07 70.40,119.51 70.40,119.51 C 70.40,119.51 125.13,150.22 135.39,141.24 Z" fill="#8B6914" opacity="0.22"/>
<path d="M 141.24,135.39 C 150.22,125.13 119.51,70.40 119.51,70.40 C 119.51,70.40 162.07,116.52 174.61,111.15 Z" fill="#8B6914" opacity="0.22"/>
<path d="M 181.98,107.39 C 193.70,100.40 181.40,38.87 181.40,38.87 C 181.40,38.87 207.62,95.88 221.21,94.65 Z" fill="#8B6914" opacity="0.22"/>
<path d="M 254.14,92.05 C 267.75,91.15 284.73,30.73 284.73,30.73 C 284.73,30.73 282.21,93.44 294.87,98.51 Z" fill="#C49A4A" opacity="0.12"/>
<path d="M 302.74,101.06 C 315.97,104.41 350.79,52.20 350.79,52.20 C 350.79,52.20 329.01,111.05 339.49,119.79 Z" fill="#C49A4A" opacity="0.12"/>
<path d="M 346.18,124.65 C 357.73,131.92 406.98,93.02 406.98,93.02 C 406.98,93.02 368.08,142.27 375.35,153.82 Z" fill="#C49A4A" opacity="0.12"/>
<path d="M 380.21,160.51 C 388.95,170.99 447.80,149.21 447.80,149.21 C 447.80,149.21 395.59,184.03 398.94,197.26 Z" fill="#C49A4A" opacity="0.12"/>
<path d="M 401.49,205.13 C 406.56,217.79 469.27,215.27 469.27,215.27 C 469.27,215.27 408.85,232.25 407.95,245.86 Z" fill="#C49A4A" opacity="0.12"/>
<path d="M 407.95,254.14 C 408.85,267.75 469.27,284.73 469.27,284.73 C 469.27,284.73 406.56,282.21 401.49,294.87 Z" fill="#C49A4A" opacity="0.12"/>
<path d="M 398.94,302.74 C 395.59,315.97 447.80,350.79 447.80,350.79 C 447.80,350.79 388.95,329.01 380.21,339.49 Z" fill="#C49A4A" opacity="0.12"/>
<path d="M 375.35,346.18 C 368.08,357.73 406.98,406.98 406.98,406.98 C 406.98,406.98 357.73,368.08 346.18,375.35 Z" fill="#C49A4A" opacity="0.12"/>
<path d="M 339.49,380.21 C 329.01,388.95 350.79,447.80 350.79,447.80 C 350.79,447.80 315.97,395.59 302.74,398.94 Z" fill="#C49A4A" opacity="0.12"/>
<path d="M 294.87,401.49 C 282.21,406.56 284.73,469.27 284.73,469.27 C 284.73,469.27 267.75,408.85 254.14,407.95 Z" fill="#C49A4A" opacity="0.12"/>
<path d="M 245.86,407.95 C 232.25,408.85 215.27,469.27 215.27,469.27 C 215.27,469.27 217.79,406.56 205.13,401.49 Z" fill="#C49A4A" opacity="0.12"/>
<path d="M 197.26,398.94 C 184.03,395.59 149.21,447.80 149.21,447.80 C 149.21,447.80 170.99,388.95 160.51,380.21 Z" fill="#C49A4A" opacity="0.12"/>
<path d="M 153.82,375.35 C 142.27,368.08 93.02,406.98 93.02,406.98 C 93.02,406.98 131.92,357.73 124.65,346.18 Z" fill="#C49A4A" opacity="0.12"/>
<path d="M 119.79,339.49 C 111.05,329.01 52.20,350.79 52.20,350.79 C 52.20,350.79 104.41,315.97 101.06,302.74 Z" fill="#C49A4A" opacity="0.12"/>
<path d="M 98.51,294.87 C 93.44,282.21 30.73,284.73 30.73,284.73 C 30.73,284.73 91.15,267.75 92.05,254.14 Z" fill="#C49A4A" opacity="0.12"/>
<path d="M 92.05,245.86 C 91.15,232.25 30.73,215.27 30.73,215.27 C 30.73,215.27 93.44,217.79 98.51,205.13 Z" fill="#C49A4A" opacity="0.12"/>
<path d="M 101.06,197.26 C 104.41,184.03 52.20,149.21 52.20,149.21 C 52.20,149.21 111.05,170.99 119.79,160.51 Z" fill="#C49A4A" opacity="0.12"/>
<path d="M 124.65,153.82 C 131.92,142.27 93.02,93.02 93.02,93.02 C 93.02,93.02 142.27,131.92 153.82,124.65 Z" fill="#C49A4A" opacity="0.12"/>
<path d="M 160.51,119.79 C 170.99,111.05 149.21,52.20 149.21,52.20 C 149.21,52.20 184.03,104.41 197.26,101.06 Z" fill="#C49A4A" opacity="0.12"/>
<path d="M 205.13,98.51 C 217.79,93.44 215.27,30.73 215.27,30.73 C 215.27,30.73 232.25,91.15 245.86,92.05 Z" fill="#C49A4A" opacity="0.12"/>
<circle cx="250.00" cy="97.00" r="2.5" fill="#A87C2A" opacity="0.38"/>
<circle cx="297.28" cy="104.49" r="2.5" fill="#A87C2A" opacity="0.38"/>
<circle cx="339.93" cy="126.22" r="2.5" fill="#A87C2A" opacity="0.38"/>
<circle cx="373.78" cy="160.07" r="2.5" fill="#A87C2A" opacity="0.38"/>
<circle cx="395.51" cy="202.72" r="2.5" fill="#A87C2A" opacity="0.38"/>
<circle cx="403.00" cy="250.00" r="2.5" fill="#A87C2A" opacity="0.38"/>
<circle cx="395.51" cy="297.28" r="2.5" fill="#A87C2A" opacity="0.38"/>
<circle cx="373.78" cy="339.93" r="2.5" fill="#A87C2A" opacity="0.38"/>
<circle cx="339.93" cy="373.78" r="2.5" fill="#A87C2A" opacity="0.38"/>
<circle cx="297.28" cy="395.51" r="2.5" fill="#A87C2A" opacity="0.38"/>
<circle cx="250.00" cy="403.00" r="2.5" fill="#A87C2A" opacity="0.38"/>
<circle cx="202.72" cy="395.51" r="2.5" fill="#A87C2A" opacity="0.38"/>
<circle cx="160.07" cy="373.78" r="2.5" fill="#A87C2A" opacity="0.38"/>
<circle cx="126.22" cy="339.93" r="2.5" fill="#A87C2A" opacity="0.38"/>
<circle cx="104.49" cy="297.28" r="2.5" fill="#A87C2A" opacity="0.38"/>
<circle cx="97.00" cy="250.00" r="2.5" fill="#A87C2A" opacity="0.38"/>
<circle cx="104.49" cy="202.72" r="2.5" fill="#A87C2A" opacity="0.38"/>
<circle cx="126.22" cy="160.07" r="2.5" fill="#A87C2A" opacity="0.38"/>
<circle cx="160.07" cy="126.22" r="2.5" fill="#A87C2A" opacity="0.38"/>
<circle cx="202.72" cy="104.49" r="2.5" fill="#A87C2A" opacity="0.38"/>
<circle cx="250" cy="250" r="153" fill="none" stroke="#8B6914" stroke-width="1.0" opacity="0.28"/>
<circle cx="250" cy="250" r="223" fill="none" stroke="#8B6914" stroke-width="0.8" opacity="0.18"/>
</g>
<g class="mandala-sm-inner">
<path d="M 236.55,206.01 C 242.16,174.81 250.00,145.00 250.00,145.00 C 250.00,145.00 257.84,174.81 263.45,206.01 Z" fill="#6B4F2A" opacity="0.3"/>
<path d="M 271.60,209.38 C 297.63,191.29 324.25,175.75 324.25,175.75 C 324.25,175.75 308.71,202.37 290.62,228.40 Z" fill="#6B4F2A" opacity="0.3"/>
<path d="M 293.99,236.55 C 325.19,242.16 355.00,250.00 355.00,250.00 C 355.00,250.00 325.19,257.84 293.99,263.45 Z" fill="#6B4F2A" opacity="0.3"/>
<path d="M 290.62,271.60 C 308.71,297.63 324.25,324.25 324.25,324.25 C 324.25,324.25 297.63,308.71 271.60,290.62 Z" fill="#6B4F2A" opacity="0.3"/>
<path d="M 263.45,293.99 C 257.84,325.19 250.00,355.00 250.00,355.00 C 250.00,355.00 242.16,325.19 236.55,293.99 Z" fill="#6B4F2A" opacity="0.3"/>
<path d="M 228.40,290.62 C 202.37,308.71 175.75,324.25 175.75,324.25 C 175.75,324.25 191.29,297.63 209.38,271.60 Z" fill="#6B4F2A" opacity="0.3"/>
<path d="M 206.01,263.45 C 174.81,257.84 145.00,250.00 145.00,250.00 C 145.00,250.00 174.81,242.16 206.01,236.55 Z" fill="#6B4F2A" opacity="0.3"/>
<path d="M 209.38,228.40 C 191.29,202.37 175.75,175.75 175.75,175.75 C 175.75,175.75 202.37,191.29 228.40,209.38 Z" fill="#6B4F2A" opacity="0.3"/>
<path d="M 238.76,222.18 C 245.37,215.75 250.00,202.00 250.00,202.00 C 250.00,202.00 254.63,215.75 261.24,222.18 Z" fill="#A87C2A" opacity="0.38"/>
<path d="M 261.72,222.38 C 270.94,222.51 283.94,216.06 283.94,216.06 C 283.94,216.06 277.49,229.06 277.62,238.28 Z" fill="#A87C2A" opacity="0.38"/>
<path d="M 277.82,238.76 C 284.25,245.37 298.00,250.00 298.00,250.00 C 298.00,250.00 284.25,254.63 277.82,261.24 Z" fill="#A87C2A" opacity="0.38"/>
<path d="M 277.62,261.72 C 277.49,270.94 283.94,283.94 283.94,283.94 C 283.94,283.94 270.94,277.49 261.72,277.62 Z" fill="#A87C2A" opacity="0.38"/>
<path d="M 261.24,277.82 C 254.63,284.25 250.00,298.00 250.00,298.00 C 250.00,298.00 245.37,284.25 238.76,277.82 Z" fill="#A87C2A" opacity="0.38"/>
<path d="M 238.28,277.62 C 229.06,277.49 216.06,283.94 216.06,283.94 C 216.06,283.94 222.51,270.94 222.38,261.72 Z" fill="#A87C2A" opacity="0.38"/>
<path d="M 222.18,261.24 C 215.75,254.63 202.00,250.00 202.00,250.00 C 202.00,250.00 215.75,245.37 222.18,238.76 Z" fill="#A87C2A" opacity="0.38"/>
<path d="M 222.38,238.28 C 222.51,229.06 216.06,216.06 216.06,216.06 C 216.06,216.06 229.06,222.51 238.28,222.38 Z" fill="#A87C2A" opacity="0.38"/>
<circle cx="250.00" cy="206.00" r="3.0" fill="#8B6914" opacity="0.5"/>
<circle cx="281.11" cy="218.89" r="3.0" fill="#8B6914" opacity="0.5"/>
<circle cx="294.00" cy="250.00" r="3.0" fill="#8B6914" opacity="0.5"/>
<circle cx="281.11" cy="281.11" r="3.0" fill="#8B6914" opacity="0.5"/>
<circle cx="250.00" cy="294.00" r="3.0" fill="#8B6914" opacity="0.5"/>
<circle cx="218.89" cy="281.11" r="3.0" fill="#8B6914" opacity="0.5"/>
<circle cx="206.00" cy="250.00" r="3.0" fill="#8B6914" opacity="0.5"/>
<circle cx="218.89" cy="218.89" r="3.0" fill="#8B6914" opacity="0.5"/>
<circle cx="250" cy="250" r="7" fill="#6B4F2A" opacity="0.75"/>
</g>
</svg>