<svg viewBox="0 0 500 500" xmlns="http://www.w3.org/2000/svg" class="mandala-svg" aria-hidden="true">
<defs>
  <radialGradient id="gGold" cx="50%" cy="50%" r="50%">
    <stop offset="0%" stop-color="#e0c88a" stop-opacity="1"/>
    <stop offset="100%" stop-color="#b8924a" stop-opacity="0.3"/>
  </radialGradient>
</defs>
<g class="mandala-outer-petals">
  <path d="M 234.748,75.666 C 233.205,58.033 250.000,15.000 250.000,15.000 C 250.000,15.000 266.795,58.033 265.252,75.666 Z" fill="none" stroke="#c9a96e" stroke-width="0.6" opacity="0.7"/>
  <path d="M 269.052,76.040 C 270.979,58.445 295.846,19.515 295.846,19.515 C 295.846,19.515 303.923,64.998 298.970,81.991 Z" fill="none" stroke="#c9a96e" stroke-width="0.6" opacity="0.7"/>
  <path d="M 302.624,83.100 C 307.946,66.219 339.931,32.888 339.931,32.888 C 339.931,32.888 338.979,79.073 330.806,94.773 Z" fill="none" stroke="#c9a96e" stroke-width="0.6" opacity="0.7"/>
  <path d="M 334.173,96.573 C 342.687,81.055 380.559,54.605 380.559,54.605 C 380.559,54.605 370.615,99.716 359.537,113.520 Z" fill="none" stroke="#c9a96e" stroke-width="0.6" opacity="0.7"/>
  <path d="M 362.488,115.942 C 373.865,102.383 416.170,83.830 416.170,83.830 C 416.170,83.830 397.617,126.135 384.058,137.512 Z" fill="none" stroke="#c9a96e" stroke-width="0.6" opacity="0.7"/>
  <path d="M 386.480,140.463 C 400.284,129.385 445.395,119.441 445.395,119.441 C 445.395,119.441 418.945,157.313 403.427,165.827 Z" fill="none" stroke="#c9a96e" stroke-width="0.6" opacity="0.7"/>
  <path d="M 405.227,169.194 C 420.927,161.021 467.112,160.069 467.112,160.069 C 467.112,160.069 433.781,192.054 416.900,197.376 Z" fill="none" stroke="#c9a96e" stroke-width="0.6" opacity="0.7"/>
  <path d="M 418.009,201.030 C 435.002,196.077 480.485,204.154 480.485,204.154 C 480.485,204.154 441.555,229.021 423.960,230.948 Z" fill="none" stroke="#c9a96e" stroke-width="0.6" opacity="0.7"/>
  <path d="M 424.334,234.748 C 441.967,233.205 485.000,250.000 485.000,250.000 C 485.000,250.000 441.967,266.795 424.334,265.252 Z" fill="none" stroke="#c9a96e" stroke-width="0.6" opacity="0.7"/>
  <path d="M 423.960,269.052 C 441.555,270.979 480.485,295.846 480.485,295.846 C 480.485,295.846 435.002,303.923 418.009,298.970 Z" fill="none" stroke="#c9a96e" stroke-width="0.6" opacity="0.7"/>
  <path d="M 416.900,302.624 C 433.781,307.946 467.112,339.931 467.112,339.931 C 467.112,339.931 420.927,338.979 405.227,330.806 Z" fill="none" stroke="#c9a96e" stroke-width="0.6" opacity="0.7"/>
  <path d="M 403.427,334.173 C 418.945,342.687 445.395,380.559 445.395,380.559 C 445.395,380.559 400.284,370.615 386.480,359.537 Z" fill="none" stroke="#c9a96e" stroke-width="0.6" opacity="0.7"/>
  <path d="M 384.058,362.488 C 397.617,373.865 416.170,416.170 416.170,416.170 C 416.170,416.170 373.865,397.617 362.488,384.058 Z" fill="none" stroke="#c9a96e" stroke-width="0.6" opacity="0.7"/>
  <path d="M 359.537,386.480 C 370.615,400.284 380.559,445.395 380.559,445.395 C 380.559,445.395 342.687,418.945 334.173,403.427 Z" fill="none" stroke="#c9a96e" stroke-width="0.6" opacity="0.7"/>
  <path d="M 330.806,405.227 C 338.979,420.927 339.931,467.112 339.931,467.112 C 339.931,467.112 307.946,433.781 302.624,416.900 Z" fill="none" stroke="#c9a96e" stroke-width="0.6" opacity="0.7"/>
  <path d="M 298.970,418.009 C 303.923,435.002 295.846,480.485 295.846,480.485 C 295.846,480.485 270.979,441.555 269.052,423.960 Z" fill="none" stroke="#c9a96e" stroke-width="0.6" opacity="0.7"/>
  <path d="M 265.252,424.334 C 266.795,441.967 250.000,485.000 250.000,485.000 C 250.000,485.000 233.205,441.967 234.748,424.334 Z" fill="none" stroke="#c9a96e" stroke-width="0.6" opacity="0.7"/>
  <path d="M 230.948,423.960 C 229.021,441.555 204.154,480.485 204.154,480.485 C 204.154,480.485 196.077,435.002 201.030,418.009 Z" fill="none" stroke="#c9a96e" stroke-width="0.6" opacity="0.7"/>
  <path d="M 197.376,416.900 C 192.054,433.781 160.069,467.112 160.069,467.112 C 160.069,467.112 161.021,420.927 169.194,405.227 Z" fill="none" stroke="#c9a96e" stroke-width="0.6" opacity="0.7"/>
  <path d="M 165.827,403.427 C 157.313,418.945 119.441,445.395 119.441,445.395 C 119.441,445.395 129.385,400.284 140.463,386.480 Z" fill="none" stroke="#c9a96e" stroke-width="0.6" opacity="0.7"/>
  <path d="M 137.512,384.058 C 126.135,397.617 83.830,416.170 83.830,416.170 C 83.830,416.170 102.383,373.865 115.942,362.488 Z" fill="none" stroke="#c9a96e" stroke-width="0.6" opacity="0.7"/>
  <path d="M 113.520,359.537 C 99.716,370.615 54.605,380.559 54.605,380.559 C 54.605,380.559 81.055,342.687 96.573,334.173 Z" fill="none" stroke="#c9a96e" stroke-width="0.6" opacity="0.7"/>
  <path d="M 94.773,330.806 C 79.073,338.979 32.888,339.931 32.888,339.931 C 32.888,339.931 66.219,307.946 83.100,302.624 Z" fill="none" stroke="#c9a96e" stroke-width="0.6" opacity="0.7"/>
  <path d="M 81.991,298.970 C 64.998,303.923 19.515,295.846 19.515,295.846 C 19.515,295.846 58.445,270.979 76.040,269.052 Z" fill="none" stroke="#c9a96e" stroke-width="0.6" opacity="0.7"/>
  <path d="M 75.666,265.252 C 58.033,266.795 15.000,250.000 15.000,250.000 C 15.000,250.000 58.033,233.205 75.666,234.748 Z" fill="none" stroke="#c9a96e" stroke-width="0.6" opacity="0.7"/>
  <path d="M 76.040,230.948 C 58.445,229.021 19.515,204.154 19.515,204.154 C 19.515,204.154 64.998,196.077 81.991,201.030 Z" fill="none" stroke="#c9a96e" stroke-width="0.6" opacity="0.7"/>
  <path d="M 83.100,197.376 C 66.219,192.054 32.888,160.069 32.888,160.069 C 32.888,160.069 79.073,161.021 94.773,169.194 Z" fill="none" stroke="#c9a96e" stroke-width="0.6" opacity="0.7"/>
  <path d="M 96.573,165.827 C 81.055,157.313 54.605,119.441 54.605,119.441 C 54.605,119.441 99.716,129.385 113.520,140.463 Z" fill="none" stroke="#c9a96e" stroke-width="0.6" opacity="0.7"/>
  <path d="M 115.942,137.512 C 102.383,126.135 83.830,83.830 83.830,83.830 C 83.830,83.830 126.135,102.383 137.512,115.942 Z" fill="none" stroke="#c9a96e" stroke-width="0.6" opacity="0.7"/>
  <path d="M 140.463,113.520 C 129.385,99.716 119.441,54.605 119.441,54.605 C 119.441,54.605 157.313,81.055 165.827,96.573 Z" fill="none" stroke="#c9a96e" stroke-width="0.6" opacity="0.7"/>
  <path d="M 169.194,94.773 C 161.021,79.073 160.069,32.888 160.069,32.888 C 160.069,32.888 192.054,66.219 197.376,83.100 Z" fill="none" stroke="#c9a96e" stroke-width="0.6" opacity="0.7"/>
  <path d="M 201.030,81.991 C 196.077,64.998 204.154,19.515 204.154,19.515 C 204.154,19.515 229.021,58.445 230.948,76.040 Z" fill="none" stroke="#c9a96e" stroke-width="0.6" opacity="0.7"/>
  <circle cx="250" cy="250" r="240" fill="none" stroke="#c9a96e" stroke-width="0.5" opacity="0.4"/>
  <circle cx="250" cy="250" r="175" fill="none" stroke="#c9a96e" stroke-width="0.4" opacity="0.35"/>
</g>
<g class="mandala-triangles">
  <polygon points="250.000,95.000 384.234,327.500 115.766,327.500" fill="none" stroke="#c9a96e" stroke-width="0.7" opacity="0.75"/>
  <polygon points="250.000,130.000 353.923,310.000 146.077,310.000" fill="none" stroke="#c9a96e" stroke-width="0.7" opacity="0.65"/>
  <polygon points="250.000,160.000 327.942,295.000 172.058,295.000" fill="none" stroke="#c9a96e" stroke-width="0.7" opacity="0.55"/>
  <polygon points="250.000,190.000 301.962,280.000 198.038,280.000" fill="none" stroke="#c9a96e" stroke-width="0.7" opacity="0.5"/>
  <polygon points="375.574,177.500 250.000,395.000 124.426,177.500" fill="none" stroke="#e0c88a" stroke-width="0.7" opacity="0.7"/>
  <polygon points="346.995,194.000 250.000,362.000 153.005,194.000" fill="none" stroke="#e0c88a" stroke-width="0.7" opacity="0.62"/>
  <polygon points="321.880,208.500 250.000,333.000 178.120,208.500" fill="none" stroke="#e0c88a" stroke-width="0.7" opacity="0.52"/>
  <polygon points="296.765,223.000 250.000,304.000 203.235,223.000" fill="none" stroke="#e0c88a" stroke-width="0.7" opacity="0.48"/>
  <circle cx="250" cy="250" r="160" fill="none" stroke="#c9a96e" stroke-width="0.5" opacity="0.3"/>
  <circle cx="250" cy="250" r="130" fill="none" stroke="#c9a96e" stroke-width="0.5" opacity="0.25"/>
  <circle cx="250" cy="250" r="100" fill="none" stroke="#c9a96e" stroke-width="0.5" opacity="0.22"/>
  <circle cx="250" cy="250" r="75" fill="none" stroke="#c9a96e" stroke-width="0.5" opacity="0.2"/>
</g>
<g class="mandala-inner-lotus">
  <path d="M 243.401,212.577 C 240.033,193.472 250.000,180.000 250.000,180.000 C 250.000,180.000 259.967,193.472 256.599,212.577 Z" fill="none" stroke="#e0c88a" stroke-width="0.7" opacity="0.8"/>
  <path d="M 258.225,212.901 C 262.424,193.961 276.788,185.328 276.788,185.328 C 276.788,185.328 280.841,201.589 270.417,217.951 Z" fill="none" stroke="#e0c88a" stroke-width="0.7" opacity="0.8"/>
  <path d="M 271.796,218.872 C 282.923,202.981 299.497,200.503 299.497,200.503 C 299.497,200.503 297.019,217.077 281.128,228.204 Z" fill="none" stroke="#e0c88a" stroke-width="0.7" opacity="0.8"/>
  <path d="M 282.049,229.583 C 298.411,219.159 314.672,223.212 314.672,223.212 C 314.672,223.212 306.039,237.576 287.099,241.775 Z" fill="none" stroke="#e0c88a" stroke-width="0.7" opacity="0.8"/>
  <path d="M 287.423,243.401 C 306.528,240.033 320.000,250.000 320.000,250.000 C 320.000,250.000 306.528,259.967 287.423,256.599 Z" fill="none" stroke="#e0c88a" stroke-width="0.7" opacity="0.8"/>
  <path d="M 287.099,258.225 C 306.039,262.424 314.672,276.788 314.672,276.788 C 314.672,276.788 298.411,280.841 282.049,270.417 Z" fill="none" stroke="#e0c88a" stroke-width="0.7" opacity="0.8"/>
  <path d="M 281.128,271.796 C 297.019,282.923 299.497,299.497 299.497,299.497 C 299.497,299.497 282.923,297.019 271.796,281.128 Z" fill="none" stroke="#e0c88a" stroke-width="0.7" opacity="0.8"/>
  <path d="M 270.417,282.049 C 280.841,298.411 276.788,314.672 276.788,314.672 C 276.788,314.672 262.424,306.039 258.225,287.099 Z" fill="none" stroke="#e0c88a" stroke-width="0.7" opacity="0.8"/>
  <path d="M 256.599,287.423 C 259.967,306.528 250.000,320.000 250.000,320.000 C 250.000,320.000 240.033,306.528 243.401,287.423 Z" fill="none" stroke="#e0c88a" stroke-width="0.7" opacity="0.8"/>
  <path d="M 241.775,287.099 C 237.576,306.039 223.212,314.672 223.212,314.672 C 223.212,314.672 219.159,298.411 229.583,282.049 Z" fill="none" stroke="#e0c88a" stroke-width="0.7" opacity="0.8"/>
  <path d="M 228.204,281.128 C 217.077,297.019 200.503,299.497 200.503,299.497 C 200.503,299.497 202.981,282.923 218.872,271.796 Z" fill="none" stroke="#e0c88a" stroke-width="0.7" opacity="0.8"/>
  <path d="M 217.951,270.417 C 201.589,280.841 185.328,276.788 185.328,276.788 C 185.328,276.788 193.961,262.424 212.901,258.225 Z" fill="none" stroke="#e0c88a" stroke-width="0.7" opacity="0.8"/>
  <path d="M 212.577,256.599 C 193.472,259.967 180.000,250.000 180.000,250.000 C 180.000,250.000 193.472,240.033 212.577,243.401 Z" fill="none" stroke="#e0c88a" stroke-width="0.7" opacity="0.8"/>
  <path d="M 212.901,241.775 C 193.961,237.576 185.328,223.212 185.328,223.212 C 185.328,223.212 201.589,219.159 217.951,229.583 Z" fill="none" stroke="#e0c88a" stroke-width="0.7" opacity="0.8"/>
  <path d="M 218.872,228.204 C 202.981,217.077 200.503,200.503 200.503,200.503 C 200.503,200.503 217.077,202.981 228.204,218.872 Z" fill="none" stroke="#e0c88a" stroke-width="0.7" opacity="0.8"/>
  <path d="M 229.583,217.951 C 219.159,201.589 223.212,185.328 223.212,185.328 C 223.212,185.328 237.576,193.961 241.775,212.901 Z" fill="none" stroke="#e0c88a" stroke-width="0.7" opacity="0.8"/>
  <path d="M 244.306,228.750 C 241.511,218.318 250.000,210.000 250.000,210.000 C 250.000,210.000 258.489,218.318 255.694,228.750 Z" fill="none" stroke="#c9a96e" stroke-width="0.6" opacity="0.85"/>
  <path d="M 261.000,230.947 C 266.400,221.594 278.284,221.716 278.284,221.716 C 278.284,221.716 278.406,233.600 269.053,239.000 Z" fill="none" stroke="#c9a96e" stroke-width="0.6" opacity="0.85"/>
  <path d="M 271.250,244.306 C 281.682,241.511 290.000,250.000 290.000,250.000 C 290.000,250.000 281.682,258.489 271.250,255.694 Z" fill="none" stroke="#c9a96e" stroke-width="0.6" opacity="0.85"/>
  <path d="M 269.053,261.000 C 278.406,266.400 278.284,278.284 278.284,278.284 C 278.284,278.284 266.400,278.406 261.000,269.053 Z" fill="none" stroke="#c9a96e" stroke-width="0.6" opacity="0.85"/>
  <path d="M 255.694,271.250 C 258.489,281.682 250.000,290.000 250.000,290.000 C 250.000,290.000 241.511,281.682 244.306,271.250 Z" fill="none" stroke="#c9a96e" stroke-width="0.6" opacity="0.85"/>
  <path d="M 239.000,269.053 C 233.600,278.406 221.716,278.284 221.716,278.284 C 221.716,278.284 221.594,266.400 230.947,261.000 Z" fill="none" stroke="#c9a96e" stroke-width="0.6" opacity="0.85"/>
  <path d="M 228.750,255.694 C 218.318,258.489 210.000,250.000 210.000,250.000 C 210.000,250.000 218.318,241.511 228.750,244.306 Z" fill="none" stroke="#c9a96e" stroke-width="0.6" opacity="0.85"/>
  <path d="M 230.947,239.000 C 221.594,233.600 221.716,221.716 221.716,221.716 C 221.716,221.716 233.600,221.594 239.000,230.947 Z" fill="none" stroke="#c9a96e" stroke-width="0.6" opacity="0.85"/>
  <circle cx="250" cy="250" r="38" fill="none" stroke="#c9a96e" stroke-width="0.6" opacity="0.5"/>
  <circle cx="250" cy="250" r="22" fill="none" stroke="#c9a96e" stroke-width="0.5" opacity="0.45"/>
</g>
<g class="mandala-bindu">
  <circle cx="250" cy="250" r="5" fill="#c9a96e" opacity="0.9"/>
  <circle cx="250" cy="250" r="10" fill="none" stroke="#e0c88a" stroke-width="0.8" opacity="0.7"/>
  <circle cx="250" cy="250" r="16" fill="none" stroke="#c9a96e" stroke-width="0.5" opacity="0.5"/>
</g>
</svg>