<svg viewBox="0 0 500 500" xmlns="http://www.w3.org/2000/svg" class="mandala-svg" aria-hidden="true">
<circle cx="250" cy="250" r="238" fill="#8B6914" opacity="0.06"/>
<circle cx="250" cy="250" r="232" fill="none" stroke="#8B6914" stroke-width="1.5" opacity="0.25"/>
<g class="mandala-outer-petals">
<path d="M 250.0,250.0 L 235.4,82.6 C 241.1,79.2 250.0,22.0 250.0,22.0 C 250.0,22.0 258.9,79.2 264.6,82.6 Z" fill="#A07820" opacity="0.18"/>
<path d="M 250.0,250.0 L 268.3,83.0 C 274.5,80.8 294.5,26.4 294.5,26.4 C 294.5,26.4 292.1,84.3 297.0,88.7 Z" fill="#A07820" opacity="0.18"/>
<path d="M 250.0,250.0 L 300.5,89.8 C 307.1,88.8 337.3,39.4 337.3,39.4 C 337.3,39.4 323.6,95.7 327.6,101.0 Z" fill="#A07820" opacity="0.18"/>
<path d="M 250.0,250.0 L 330.8,102.7 C 337.4,103.0 376.7,60.4 376.7,60.4 C 376.7,60.4 352.3,113.0 355.2,119.0 Z" fill="#A07820" opacity="0.18"/>
<path d="M 250.0,250.0 L 358.0,121.3 C 364.4,122.9 411.2,88.8 411.2,88.8 C 411.2,88.8 377.1,135.6 378.7,142.0 Z" fill="#A07820" opacity="0.18"/>
<path d="M 250.0,250.0 L 381.0,144.8 C 387.0,147.7 439.6,123.3 439.6,123.3 C 439.6,123.3 397.0,162.6 397.3,169.2 Z" fill="#A07820" opacity="0.18"/>
<path d="M 250.0,250.0 L 399.0,172.4 C 404.3,176.4 460.6,162.7 460.6,162.7 C 460.6,162.7 411.2,192.9 410.2,199.5 Z" fill="#A07820" opacity="0.18"/>
<path d="M 250.0,250.0 L 411.3,203.0 C 415.7,207.9 473.6,205.5 473.6,205.5 C 473.6,205.5 419.2,225.5 417.0,231.7 Z" fill="#A07820" opacity="0.18"/>
<path d="M 250.0,250.0 L 417.4,235.4 C 420.8,241.1 478.0,250.0 478.0,250.0 C 478.0,250.0 420.8,258.9 417.4,264.6 Z" fill="#A07820" opacity="0.18"/>
<path d="M 250.0,250.0 L 417.0,268.3 C 419.2,274.5 473.6,294.5 473.6,294.5 C 473.6,294.5 415.7,292.1 411.3,297.0 Z" fill="#A07820" opacity="0.18"/>
<path d="M 250.0,250.0 L 410.2,300.5 C 411.2,307.1 460.6,337.3 460.6,337.3 C 460.6,337.3 404.3,323.6 399.0,327.6 Z" fill="#A07820" opacity="0.18"/>
<path d="M 250.0,250.0 L 397.3,330.8 C 397.0,337.4 439.6,376.7 439.6,376.7 C 439.6,376.7 387.0,352.3 381.0,355.2 Z" fill="#A07820" opacity="0.18"/>
<path d="M 250.0,250.0 L 378.7,358.0 C 377.1,364.4 411.2,411.2 411.2,411.2 C 411.2,411.2 364.4,377.1 358.0,378.7 Z" fill="#A07820" opacity="0.18"/>
<path d="M 250.0,250.0 L 355.2,381.0 C 352.3,387.0 376.7,439.6 376.7,439.6 C 376.7,439.6 337.4,397.0 330.8,397.3 Z" fill="#A07820" opacity="0.18"/>
<path d="M 250.0,250.0 L 327.6,399.0 C 323.6,404.3 337.3,460.6 337.3,460.6 C 337.3,460.6 307.1,411.2 300.5,410.2 Z" fill="#A07820" opacity="0.18"/>
<path d="M 250.0,250.0 L 297.0,411.3 C 292.1,415.7 294.5,473.6 294.5,473.6 C 294.5,473.6 274.5,419.2 268.3,417.0 Z" fill="#A07820" opacity="0.18"/>
<path d="M 250.0,250.0 L 264.6,417.4 C 258.9,420.8 250.0,478.0 250.0,478.0 C 250.0,478.0 241.1,420.8 235.4,417.4 Z" fill="#A07820" opacity="0.18"/>
<path d="M 250.0,250.0 L 231.7,417.0 C 225.5,419.2 205.5,473.6 205.5,473.6 C 205.5,473.6 207.9,415.7 203.0,411.3 Z" fill="#A07820" opacity="0.18"/>
<path d="M 250.0,250.0 L 199.5,410.2 C 192.9,411.2 162.7,460.6 162.7,460.6 C 162.7,460.6 176.4,404.3 172.4,399.0 Z" fill="#A07820" opacity="0.18"/>
<path d="M 250.0,250.0 L 169.2,397.3 C 162.6,397.0 123.3,439.6 123.3,439.6 C 123.3,439.6 147.7,387.0 144.8,381.0 Z" fill="#A07820" opacity="0.18"/>
<path d="M 250.0,250.0 L 142.0,378.7 C 135.6,377.1 88.8,411.2 88.8,411.2 C 88.8,411.2 122.9,364.4 121.3,358.0 Z" fill="#A07820" opacity="0.18"/>
<path d="M 250.0,250.0 L 119.0,355.2 C 113.0,352.3 60.4,376.7 60.4,376.7 C 60.4,376.7 103.0,337.4 102.7,330.8 Z" fill="#A07820" opacity="0.18"/>
<path d="M 250.0,250.0 L 101.0,327.6 C 95.7,323.6 39.4,337.3 39.4,337.3 C 39.4,337.3 88.8,307.1 89.8,300.5 Z" fill="#A07820" opacity="0.18"/>
<path d="M 250.0,250.0 L 88.7,297.0 C 84.3,292.1 26.4,294.5 26.4,294.5 C 26.4,294.5 80.8,274.5 83.0,268.3 Z" fill="#A07820" opacity="0.18"/>
<path d="M 250.0,250.0 L 82.6,264.6 C 79.2,258.9 22.0,250.0 22.0,250.0 C 22.0,250.0 79.2,241.1 82.6,235.4 Z" fill="#A07820" opacity="0.18"/>
<path d="M 250.0,250.0 L 83.0,231.7 C 80.8,225.5 26.4,205.5 26.4,205.5 C 26.4,205.5 84.3,207.9 88.7,203.0 Z" fill="#A07820" opacity="0.18"/>
<path d="M 250.0,250.0 L 89.8,199.5 C 88.8,192.9 39.4,162.7 39.4,162.7 C 39.4,162.7 95.7,176.4 101.0,172.4 Z" fill="#A07820" opacity="0.18"/>
<path d="M 250.0,250.0 L 102.7,169.2 C 103.0,162.6 60.4,123.3 60.4,123.3 C 60.4,123.3 113.0,147.7 119.0,144.8 Z" fill="#A07820" opacity="0.18"/>
<path d="M 250.0,250.0 L 121.3,142.0 C 122.9,135.6 88.8,88.8 88.8,88.8 C 88.8,88.8 135.6,122.9 142.0,121.3 Z" fill="#A07820" opacity="0.18"/>
<path d="M 250.0,250.0 L 144.8,119.0 C 147.7,113.0 123.3,60.4 123.3,60.4 C 123.3,60.4 162.6,103.0 169.2,102.7 Z" fill="#A07820" opacity="0.18"/>
<path d="M 250.0,250.0 L 172.4,101.0 C 176.4,95.7 162.7,39.4 162.7,39.4 C 162.7,39.4 192.9,88.8 199.5,89.8 Z" fill="#A07820" opacity="0.18"/>
<path d="M 250.0,250.0 L 203.0,88.7 C 207.9,84.3 205.5,26.4 205.5,26.4 C 205.5,26.4 225.5,80.8 231.7,83.0 Z" fill="#A07820" opacity="0.18"/>
<path d="M 250.0,250.0 L 251.8,82.0 C 257.8,79.2 272.2,23.1 272.2,23.1 C 272.2,23.1 275.6,80.9 280.9,84.9 Z" fill="#C49A3C" opacity="0.12"/>
<path d="M 250.0,250.0 L 284.5,85.6 C 290.9,84.0 316.1,31.8 316.1,31.8 C 316.1,31.8 308.1,89.2 312.5,94.1 Z" fill="#C49A3C" opacity="0.12"/>
<path d="M 250.0,250.0 L 315.9,95.5 C 322.5,95.1 357.4,48.9 357.4,48.9 C 357.4,48.9 338.3,103.6 341.7,109.3 Z" fill="#C49A3C" opacity="0.12"/>
<path d="M 250.0,250.0 L 344.8,111.3 C 351.4,112.3 394.6,73.7 394.6,73.7 C 394.6,73.7 365.2,123.6 367.4,129.9 Z" fill="#C49A3C" opacity="0.12"/>
<path d="M 250.0,250.0 L 370.0,132.5 C 376.3,134.7 426.2,105.3 426.2,105.3 C 426.2,105.3 387.6,148.5 388.6,155.1 Z" fill="#C49A3C" opacity="0.12"/>
<path d="M 250.0,250.0 L 390.7,158.1 C 396.3,161.5 451.0,142.4 451.0,142.4 C 451.0,142.4 404.8,177.3 404.5,184.0 Z" fill="#C49A3C" opacity="0.12"/>
<path d="M 250.0,250.0 L 405.9,187.3 C 410.8,191.8 468.2,183.7 468.2,183.7 C 468.2,183.7 416.0,208.9 414.4,215.4 Z" fill="#C49A3C" opacity="0.12"/>
<path d="M 250.0,250.0 L 415.1,219.0 C 419.1,224.3 476.9,227.6 476.9,227.6 C 476.9,227.6 420.8,242.1 418.0,248.1 Z" fill="#C49A3C" opacity="0.12"/>
<path d="M 250.0,250.0 L 418.0,251.8 C 420.8,257.8 476.9,272.2 476.9,272.2 C 476.9,272.2 419.1,275.6 415.1,280.9 Z" fill="#C49A3C" opacity="0.12"/>
<path d="M 250.0,250.0 L 414.4,284.5 C 416.0,290.9 468.2,316.1 468.2,316.1 C 468.2,316.1 410.8,308.1 405.9,312.5 Z" fill="#C49A3C" opacity="0.12"/>
<path d="M 250.0,250.0 L 404.5,315.9 C 404.9,322.5 451.1,357.4 451.1,357.4 C 451.1,357.4 396.4,338.3 390.7,341.7 Z" fill="#C49A3C" opacity="0.12"/>
<path d="M 250.0,250.0 L 388.7,344.8 C 387.7,351.4 426.3,394.6 426.3,394.6 C 426.3,394.6 376.4,365.2 370.1,367.4 Z" fill="#C49A3C" opacity="0.12"/>
<path d="M 250.0,250.0 L 367.5,370.0 C 365.3,376.3 394.7,426.2 394.7,426.2 C 394.7,426.2 351.5,387.6 344.9,388.6 Z" fill="#C49A3C" opacity="0.12"/>
<path d="M 250.0,250.0 L 341.9,390.7 C 338.5,396.3 357.6,451.0 357.6,451.0 C 357.6,451.0 322.7,404.8 316.0,404.5 Z" fill="#C49A3C" opacity="0.12"/>
<path d="M 250.0,250.0 L 312.7,405.9 C 308.2,410.8 316.3,468.2 316.3,468.2 C 316.3,468.2 291.1,416.0 284.6,414.4 Z" fill="#C49A3C" opacity="0.12"/>
<path d="M 250.0,250.0 L 281.0,415.1 C 275.7,419.1 272.4,476.9 272.4,476.9 C 272.4,476.9 257.9,420.8 251.9,418.0 Z" fill="#C49A3C" opacity="0.12"/>
<path d="M 250.0,250.0 L 248.2,418.0 C 242.2,420.8 227.8,476.9 227.8,476.9 C 227.8,476.9 224.4,419.1 219.1,415.1 Z" fill="#C49A3C" opacity="0.12"/>
<path d="M 250.0,250.0 L 215.5,414.4 C 209.1,416.0 183.9,468.2 183.9,468.2 C 183.9,468.2 191.9,410.8 187.5,405.9 Z" fill="#C49A3C" opacity="0.12"/>
<path d="M 250.0,250.0 L 184.1,404.5 C 177.5,404.9 142.6,451.1 142.6,451.1 C 142.6,451.1 161.7,396.4 158.3,390.7 Z" fill="#C49A3C" opacity="0.12"/>
<path d="M 250.0,250.0 L 155.2,388.7 C 148.6,387.7 105.4,426.3 105.4,426.3 C 105.4,426.3 134.8,376.4 132.6,370.1 Z" fill="#C49A3C" opacity="0.12"/>
<path d="M 250.0,250.0 L 130.0,367.5 C 123.7,365.3 73.8,394.7 73.8,394.7 C 73.8,394.7 112.4,351.5 111.4,344.9 Z" fill="#C49A3C" opacity="0.12"/>
<path d="M 250.0,250.0 L 109.3,341.9 C 103.7,338.5 49.0,357.6 49.0,357.6 C 49.0,357.6 95.2,322.7 95.5,316.0 Z" fill="#C49A3C" opacity="0.12"/>
<path d="M 250.0,250.0 L 94.1,312.7 C 89.2,308.2 31.8,316.3 31.8,316.3 C 31.8,316.3 84.0,291.1 85.6,284.6 Z" fill="#C49A3C" opacity="0.12"/>
<path d="M 250.0,250.0 L 84.9,281.0 C 80.9,275.7 23.1,272.4 23.1,272.4 C 23.1,272.4 79.2,257.9 82.0,251.9 Z" fill="#C49A3C" opacity="0.12"/>
<path d="M 250.0,250.0 L 82.0,248.2 C 79.2,242.2 23.1,227.8 23.1,227.8 C 23.1,227.8 80.9,224.4 84.9,219.1 Z" fill="#C49A3C" opacity="0.12"/>
<path d="M 250.0,250.0 L 85.6,215.5 C 84.0,209.1 31.8,183.9 31.8,183.9 C 31.8,183.9 89.2,191.9 94.1,187.5 Z" fill="#C49A3C" opacity="0.12"/>
<path d="M 250.0,250.0 L 95.5,184.1 C 95.1,177.5 48.9,142.6 48.9,142.6 C 48.9,142.6 103.6,161.7 109.3,158.3 Z" fill="#C49A3C" opacity="0.12"/>
<path d="M 250.0,250.0 L 111.3,155.2 C 112.3,148.6 73.7,105.4 73.7,105.4 C 73.7,105.4 123.6,134.8 129.9,132.6 Z" fill="#C49A3C" opacity="0.12"/>
<path d="M 250.0,250.0 L 132.5,130.0 C 134.7,123.7 105.3,73.8 105.3,73.8 C 105.3,73.8 148.5,112.4 155.1,111.4 Z" fill="#C49A3C" opacity="0.12"/>
<path d="M 250.0,250.0 L 158.1,109.3 C 161.5,103.7 142.4,49.0 142.4,49.0 C 142.4,49.0 177.3,95.2 184.0,95.5 Z" fill="#C49A3C" opacity="0.12"/>
<path d="M 250.0,250.0 L 187.3,94.1 C 191.8,89.2 183.7,31.8 183.7,31.8 C 183.7,31.8 208.9,84.0 215.4,85.6 Z" fill="#C49A3C" opacity="0.12"/>
<path d="M 250.0,250.0 L 219.0,84.9 C 224.3,80.9 227.6,23.1 227.6,23.1 C 227.6,23.1 242.1,79.2 248.1,82.0 Z" fill="#C49A3C" opacity="0.12"/>
<circle cx="250" cy="250" r="168" fill="none" stroke="#A07820" stroke-width="1.2" opacity="0.30"/>
</g>
<g class="mandala-triangles">
<path d="M 250.0,250.0 L 232.8,141.4 C 238.4,126.8 250.0,85.0 250.0,85.0 C 250.0,85.0 261.6,126.8 267.2,141.4 Z" fill="#8B6914" opacity="0.22"/>
<path d="M 250.0,250.0 L 275.7,143.0 C 286.4,131.7 313.1,97.6 313.1,97.6 C 313.1,97.6 307.9,140.6 307.5,156.2 Z" fill="#8B6914" opacity="0.22"/>
<path d="M 250.0,250.0 L 314.7,161.0 C 328.9,154.6 366.7,133.3 366.7,133.3 C 366.7,133.3 345.4,171.1 339.0,185.3 Z" fill="#8B6914" opacity="0.22"/>
<path d="M 250.0,250.0 L 343.8,192.5 C 359.4,192.1 402.4,186.9 402.4,186.9 C 402.4,186.9 368.3,213.6 357.0,224.3 Z" fill="#8B6914" opacity="0.22"/>
<path d="M 250.0,250.0 L 358.6,232.8 C 373.2,238.4 415.0,250.0 415.0,250.0 C 415.0,250.0 373.2,261.6 358.6,267.2 Z" fill="#8B6914" opacity="0.22"/>
<path d="M 250.0,250.0 L 357.0,275.7 C 368.3,286.4 402.4,313.1 402.4,313.1 C 402.4,313.1 359.4,307.9 343.8,307.5 Z" fill="#8B6914" opacity="0.22"/>
<path d="M 250.0,250.0 L 339.0,314.7 C 345.4,328.9 366.7,366.7 366.7,366.7 C 366.7,366.7 328.9,345.4 314.7,339.0 Z" fill="#8B6914" opacity="0.22"/>
<path d="M 250.0,250.0 L 307.5,343.8 C 307.9,359.4 313.1,402.4 313.1,402.4 C 313.1,402.4 286.4,368.3 275.7,357.0 Z" fill="#8B6914" opacity="0.22"/>
<path d="M 250.0,250.0 L 267.2,358.6 C 261.6,373.2 250.0,415.0 250.0,415.0 C 250.0,415.0 238.4,373.2 232.8,358.6 Z" fill="#8B6914" opacity="0.22"/>
<path d="M 250.0,250.0 L 224.3,357.0 C 213.6,368.3 186.9,402.4 186.9,402.4 C 186.9,402.4 192.1,359.4 192.5,343.8 Z" fill="#8B6914" opacity="0.22"/>
<path d="M 250.0,250.0 L 185.3,339.0 C 171.1,345.4 133.3,366.7 133.3,366.7 C 133.3,366.7 154.6,328.9 161.0,314.7 Z" fill="#8B6914" opacity="0.22"/>
<path d="M 250.0,250.0 L 156.2,307.5 C 140.6,307.9 97.6,313.1 97.6,313.1 C 97.6,313.1 131.7,286.4 143.0,275.7 Z" fill="#8B6914" opacity="0.22"/>
<path d="M 250.0,250.0 L 141.4,267.2 C 126.8,261.6 85.0,250.0 85.0,250.0 C 85.0,250.0 126.8,238.4 141.4,232.8 Z" fill="#8B6914" opacity="0.22"/>
<path d="M 250.0,250.0 L 143.0,224.3 C 131.7,213.6 97.6,186.9 97.6,186.9 C 97.6,186.9 140.6,192.1 156.2,192.5 Z" fill="#8B6914" opacity="0.22"/>
<path d="M 250.0,250.0 L 161.0,185.3 C 154.6,171.1 133.3,133.3 133.3,133.3 C 133.3,133.3 171.1,154.6 185.3,161.0 Z" fill="#8B6914" opacity="0.22"/>
<path d="M 250.0,250.0 L 192.5,156.2 C 192.1,140.6 186.9,97.6 186.9,97.6 C 186.9,97.6 213.6,131.7 224.3,143.0 Z" fill="#8B6914" opacity="0.22"/>
<path d="M 250.0,250.0 L 254.3,140.1 C 262.6,126.9 282.2,88.2 282.2,88.2 C 282.2,88.2 285.5,131.4 288.1,146.8 Z" fill="#C49A3C" opacity="0.14"/>
<path d="M 250.0,250.0 L 296.1,150.1 C 308.8,141.1 341.7,112.8 341.7,112.8 C 341.7,112.8 328.1,154.0 324.7,169.2 Z" fill="#C49A3C" opacity="0.14"/>
<path d="M 250.0,250.0 L 330.8,175.3 C 346.0,171.9 387.2,158.3 387.2,158.3 C 387.2,158.3 358.9,191.2 349.9,203.9 Z" fill="#C49A3C" opacity="0.14"/>
<path d="M 250.0,250.0 L 353.2,211.9 C 368.6,214.5 411.8,217.8 411.8,217.8 C 411.8,217.8 373.1,237.4 359.9,245.7 Z" fill="#C49A3C" opacity="0.14"/>
<path d="M 250.0,250.0 L 359.9,254.3 C 373.1,262.6 411.8,282.2 411.8,282.2 C 411.8,282.2 368.6,285.5 353.2,288.1 Z" fill="#C49A3C" opacity="0.14"/>
<path d="M 250.0,250.0 L 349.9,296.1 C 358.9,308.8 387.2,341.7 387.2,341.7 C 387.2,341.7 346.0,328.1 330.8,324.7 Z" fill="#C49A3C" opacity="0.14"/>
<path d="M 250.0,250.0 L 324.7,330.8 C 328.1,346.0 341.7,387.2 341.7,387.2 C 341.7,387.2 308.8,358.9 296.1,349.9 Z" fill="#C49A3C" opacity="0.14"/>
<path d="M 250.0,250.0 L 288.1,353.2 C 285.5,368.6 282.2,411.8 282.2,411.8 C 282.2,411.8 262.6,373.1 254.3,359.9 Z" fill="#C49A3C" opacity="0.14"/>
<path d="M 250.0,250.0 L 245.7,359.9 C 237.4,373.1 217.8,411.8 217.8,411.8 C 217.8,411.8 214.5,368.6 211.9,353.2 Z" fill="#C49A3C" opacity="0.14"/>
<path d="M 250.0,250.0 L 203.9,349.9 C 191.2,358.9 158.3,387.2 158.3,387.2 C 158.3,387.2 171.9,346.0 175.3,330.8 Z" fill="#C49A3C" opacity="0.14"/>
<path d="M 250.0,250.0 L 169.2,324.7 C 154.0,328.1 112.8,341.7 112.8,341.7 C 112.8,341.7 141.1,308.8 150.1,296.1 Z" fill="#C49A3C" opacity="0.14"/>
<path d="M 250.0,250.0 L 146.8,288.1 C 131.4,285.5 88.2,282.2 88.2,282.2 C 88.2,282.2 126.9,262.6 140.1,254.3 Z" fill="#C49A3C" opacity="0.14"/>
<path d="M 250.0,250.0 L 140.1,245.7 C 126.9,237.4 88.2,217.8 88.2,217.8 C 88.2,217.8 131.4,214.5 146.8,211.9 Z" fill="#C49A3C" opacity="0.14"/>
<path d="M 250.0,250.0 L 150.1,203.9 C 141.1,191.2 112.8,158.3 112.8,158.3 C 112.8,158.3 154.0,171.9 169.2,175.3 Z" fill="#C49A3C" opacity="0.14"/>
<path d="M 250.0,250.0 L 175.3,169.2 C 171.9,154.0 158.3,112.8 158.3,112.8 C 158.3,112.8 191.2,141.1 203.9,150.1 Z" fill="#C49A3C" opacity="0.14"/>
<path d="M 250.0,250.0 L 211.9,146.8 C 214.5,131.4 217.8,88.2 217.8,88.2 C 217.8,88.2 237.4,126.9 245.7,140.1 Z" fill="#C49A3C" opacity="0.14"/>
<polygon points="250.0,142.0 343.5,304.0 156.5,304.0" fill="none" stroke="#A07820" stroke-width="1.4" opacity="0.28"/>
<polygon points="334.9,201.0 250.0,348.0 165.1,201.0" fill="none" stroke="#8B6914" stroke-width="1.4" opacity="0.24"/>
<polygon points="250.0,168.0 321.0,291.0 179.0,291.0" fill="none" stroke="#C49A3C" stroke-width="1.4" opacity="0.2"/>
<polygon points="312.4,214.0 250.0,322.0 187.6,214.0" fill="none" stroke="#A07820" stroke-width="1.4" opacity="0.18"/>
<circle cx="250" cy="250" r="110" fill="none" stroke="#8B6914" stroke-width="1" opacity="0.25"/>
</g>
<g class="mandala-inner-lotus">
<path d="M 250.0,250.0 L 236.8,203.9 C 236.9,172.4 250.0,145.0 250.0,145.0 C 250.0,145.0 263.1,172.4 263.2,203.9 Z" fill="#A07820" opacity="0.28"/>
<path d="M 250.0,250.0 L 273.3,208.0 C 295.6,185.8 324.2,175.8 324.2,175.8 C 324.2,175.8 314.2,204.4 292.0,226.7 Z" fill="#A07820" opacity="0.28"/>
<path d="M 250.0,250.0 L 296.1,236.8 C 327.6,236.9 355.0,250.0 355.0,250.0 C 355.0,250.0 327.6,263.1 296.1,263.2 Z" fill="#A07820" opacity="0.28"/>
<path d="M 250.0,250.0 L 292.0,273.3 C 314.2,295.6 324.2,324.2 324.2,324.2 C 324.2,324.2 295.6,314.2 273.3,292.0 Z" fill="#A07820" opacity="0.28"/>
<path d="M 250.0,250.0 L 263.2,296.1 C 263.1,327.6 250.0,355.0 250.0,355.0 C 250.0,355.0 236.9,327.6 236.8,296.1 Z" fill="#A07820" opacity="0.28"/>
<path d="M 250.0,250.0 L 226.7,292.0 C 204.4,314.2 175.8,324.2 175.8,324.2 C 175.8,324.2 185.8,295.6 208.0,273.3 Z" fill="#A07820" opacity="0.28"/>
<path d="M 250.0,250.0 L 203.9,263.2 C 172.4,263.1 145.0,250.0 145.0,250.0 C 145.0,250.0 172.4,236.9 203.9,236.8 Z" fill="#A07820" opacity="0.28"/>
<path d="M 250.0,250.0 L 208.0,226.7 C 185.8,204.4 175.8,175.8 175.8,175.8 C 175.8,175.8 204.4,185.8 226.7,208.0 Z" fill="#A07820" opacity="0.28"/>
<path d="M 250.0,250.0 L 255.4,202.3 C 267.6,173.2 290.2,153.0 290.2,153.0 C 290.2,153.0 291.8,183.3 279.9,212.4 Z" fill="#8B6914" opacity="0.2"/>
<path d="M 250.0,250.0 L 287.6,220.1 C 316.7,208.2 347.0,209.8 347.0,209.8 C 347.0,209.8 326.8,232.4 297.7,244.6 Z" fill="#8B6914" opacity="0.2"/>
<path d="M 250.0,250.0 L 297.7,255.4 C 326.8,267.6 347.0,290.2 347.0,290.2 C 347.0,290.2 316.7,291.8 287.6,279.9 Z" fill="#8B6914" opacity="0.2"/>
<path d="M 250.0,250.0 L 279.9,287.6 C 291.8,316.7 290.2,347.0 290.2,347.0 C 290.2,347.0 267.6,326.8 255.4,297.7 Z" fill="#8B6914" opacity="0.2"/>
<path d="M 250.0,250.0 L 244.6,297.7 C 232.4,326.8 209.8,347.0 209.8,347.0 C 209.8,347.0 208.2,316.7 220.1,287.6 Z" fill="#8B6914" opacity="0.2"/>
<path d="M 250.0,250.0 L 212.4,279.9 C 183.3,291.8 153.0,290.2 153.0,290.2 C 153.0,290.2 173.2,267.6 202.3,255.4 Z" fill="#8B6914" opacity="0.2"/>
<path d="M 250.0,250.0 L 202.3,244.6 C 173.2,232.4 153.0,209.8 153.0,209.8 C 153.0,209.8 183.3,208.2 212.4,220.1 Z" fill="#8B6914" opacity="0.2"/>
<path d="M 250.0,250.0 L 220.1,212.4 C 208.2,183.3 209.8,153.0 209.8,153.0 C 209.8,153.0 232.4,173.2 244.6,202.3 Z" fill="#8B6914" opacity="0.2"/>
<path d="M 250.0,250.0 L 239.7,221.8 C 242.2,213.3 250.0,200.0 250.0,200.0 C 250.0,200.0 257.8,213.3 260.3,221.8 Z" fill="#C49A3C" opacity="0.35"/>
<path d="M 250.0,250.0 L 262.7,222.8 C 270.4,218.5 285.4,214.6 285.4,214.6 C 285.4,214.6 281.5,229.6 277.2,237.3 Z" fill="#C49A3C" opacity="0.35"/>
<path d="M 250.0,250.0 L 278.2,239.7 C 286.7,242.2 300.0,250.0 300.0,250.0 C 300.0,250.0 286.7,257.8 278.2,260.3 Z" fill="#C49A3C" opacity="0.35"/>
<path d="M 250.0,250.0 L 277.2,262.7 C 281.5,270.4 285.4,285.4 285.4,285.4 C 285.4,285.4 270.4,281.5 262.7,277.2 Z" fill="#C49A3C" opacity="0.35"/>
<path d="M 250.0,250.0 L 260.3,278.2 C 257.8,286.7 250.0,300.0 250.0,300.0 C 250.0,300.0 242.2,286.7 239.7,278.2 Z" fill="#C49A3C" opacity="0.35"/>
<path d="M 250.0,250.0 L 237.3,277.2 C 229.6,281.5 214.6,285.4 214.6,285.4 C 214.6,285.4 218.5,270.4 222.8,262.7 Z" fill="#C49A3C" opacity="0.35"/>
<path d="M 250.0,250.0 L 221.8,260.3 C 213.3,257.8 200.0,250.0 200.0,250.0 C 200.0,250.0 213.3,242.2 221.8,239.7 Z" fill="#C49A3C" opacity="0.35"/>
<path d="M 250.0,250.0 L 222.8,237.3 C 218.5,229.6 214.6,214.6 214.6,214.6 C 214.6,214.6 229.6,218.5 237.3,222.8 Z" fill="#C49A3C" opacity="0.35"/>
<circle cx="250" cy="250" r="48" fill="#8B6914" opacity="0.12"/>
<circle cx="250" cy="250" r="48" fill="none" stroke="#A07820" stroke-width="1.2" opacity="0.35"/>
</g>
<g class="mandala-bindu">
<circle cx="250" cy="250" r="18" fill="#8B6914" opacity="0.30"/>
<circle cx="250" cy="250" r="10" fill="#A07820" opacity="0.55"/>
<circle cx="250" cy="250" r="5"  fill="#8B6914" opacity="0.80"/>
</g>
</svg>