<svg viewBox="0 0 500 500" xmlns="http://www.w3.org/2000/svg" class="mandala-svg-sm" aria-hidden="true">
<g class="mandala-sm-outer">
  <path d="M 224.970,91.970 C 220.496,63.722 250.000,20.000 250.000,20.000 C 250.000,20.000 279.504,63.722 275.030,91.970 Z" fill="none" stroke="#c9a96e" stroke-width="0.8" opacity="0.8"/>
  <path d="M 287.351,94.421 C 294.028,66.611 338.017,37.508 338.017,37.508 C 338.017,37.508 348.543,89.192 333.600,113.578 Z" fill="none" stroke="#c9a96e" stroke-width="0.8" opacity="0.8"/>
  <path d="M 344.046,120.557 C 360.856,97.419 412.635,87.365 412.635,87.365 C 412.635,87.365 402.581,139.144 379.443,155.954 Z" fill="none" stroke="#c9a96e" stroke-width="0.8" opacity="0.8"/>
  <path d="M 386.422,166.400 C 410.808,151.457 462.492,161.983 462.492,161.983 C 462.492,161.983 433.389,205.972 405.579,212.649 Z" fill="none" stroke="#c9a96e" stroke-width="0.8" opacity="0.8"/>
  <path d="M 408.030,224.970 C 436.278,220.496 480.000,250.000 480.000,250.000 C 480.000,250.000 436.278,279.504 408.030,275.030 Z" fill="none" stroke="#c9a96e" stroke-width="0.8" opacity="0.8"/>
  <path d="M 405.579,287.351 C 433.389,294.028 462.492,338.017 462.492,338.017 C 462.492,338.017 410.808,348.543 386.422,333.600 Z" fill="none" stroke="#c9a96e" stroke-width="0.8" opacity="0.8"/>
  <path d="M 379.443,344.046 C 402.581,360.856 412.635,412.635 412.635,412.635 C 412.635,412.635 360.856,402.581 344.046,379.443 Z" fill="none" stroke="#c9a96e" stroke-width="0.8" opacity="0.8"/>
  <path d="M 333.600,386.422 C 348.543,410.808 338.017,462.492 338.017,462.492 C 338.017,462.492 294.028,433.389 287.351,405.579 Z" fill="none" stroke="#c9a96e" stroke-width="0.8" opacity="0.8"/>
  <path d="M 275.030,408.030 C 279.504,436.278 250.000,480.000 250.000,480.000 C 250.000,480.000 220.496,436.278 224.970,408.030 Z" fill="none" stroke="#c9a96e" stroke-width="0.8" opacity="0.8"/>
  <path d="M 212.649,405.579 C 205.972,433.389 161.983,462.492 161.983,462.492 C 161.983,462.492 151.457,410.808 166.400,386.422 Z" fill="none" stroke="#c9a96e" stroke-width="0.8" opacity="0.8"/>
  <path d="M 155.954,379.443 C 139.144,402.581 87.365,412.635 87.365,412.635 C 87.365,412.635 97.419,360.856 120.557,344.046 Z" fill="none" stroke="#c9a96e" stroke-width="0.8" opacity="0.8"/>
  <path d="M 113.578,333.600 C 89.192,348.543 37.508,338.017 37.508,338.017 C 37.508,338.017 66.611,294.028 94.421,287.351 Z" fill="none" stroke="#c9a96e" stroke-width="0.8" opacity="0.8"/>
  <path d="M 91.970,275.030 C 63.722,279.504 20.000,250.000 20.000,250.000 C 20.000,250.000 63.722,220.496 91.970,224.970 Z" fill="none" stroke="#c9a96e" stroke-width="0.8" opacity="0.8"/>
  <path d="M 94.421,212.649 C 66.611,205.972 37.508,161.983 37.508,161.983 C 37.508,161.983 89.192,151.457 113.578,166.400 Z" fill="none" stroke="#c9a96e" stroke-width="0.8" opacity="0.8"/>
  <path d="M 120.557,155.954 C 97.419,139.144 87.365,87.365 87.365,87.365 C 87.365,87.365 139.144,97.419 155.954,120.557 Z" fill="none" stroke="#c9a96e" stroke-width="0.8" opacity="0.8"/>
  <path d="M 166.400,113.578 C 151.457,89.192 161.983,37.508 161.983,37.508 C 161.983,37.508 205.972,66.611 212.649,94.421 Z" fill="none" stroke="#c9a96e" stroke-width="0.8" opacity="0.8"/>
  <circle cx="250" cy="250" r="235" fill="none" stroke="#c9a96e" stroke-width="0.6" opacity="0.35"/>
  <circle cx="250" cy="250" r="160" fill="none" stroke="#c9a96e" stroke-width="0.6" opacity="0.3"/>
  <polygon points="250.000,110.000 371.244,320.000 128.756,320.000" fill="none" stroke="#c9a96e" stroke-width="0.7" opacity="0.65"/>
  <polygon points="250.000,150.000 336.603,300.000 163.397,300.000" fill="none" stroke="#c9a96e" stroke-width="0.7" opacity="0.65"/>
  <polygon points="362.583,185.000 250.000,380.000 137.417,185.000" fill="none" stroke="#e0c88a" stroke-width="0.7" opacity="0.60"/>
  <polygon points="329.674,204.000 250.000,342.000 170.326,204.000" fill="none" stroke="#e0c88a" stroke-width="0.7" opacity="0.60"/>
</g>
<g class="mandala-sm-inner">
  <path d="M 240.941,216.193 C 235.144,194.556 250.000,180.000 250.000,180.000 C 250.000,180.000 264.856,194.556 259.059,216.193 Z" fill="none" stroke="#e0c88a" stroke-width="0.7" opacity="0.85"/>
  <path d="M 267.500,219.689 C 278.700,200.290 299.497,200.503 299.497,200.503 C 299.497,200.503 299.710,221.300 280.311,232.500 Z" fill="none" stroke="#e0c88a" stroke-width="0.7" opacity="0.85"/>
  <path d="M 283.807,240.941 C 305.444,235.144 320.000,250.000 320.000,250.000 C 320.000,250.000 305.444,264.856 283.807,259.059 Z" fill="none" stroke="#e0c88a" stroke-width="0.7" opacity="0.85"/>
  <path d="M 280.311,267.500 C 299.710,278.700 299.497,299.497 299.497,299.497 C 299.497,299.497 278.700,299.710 267.500,280.311 Z" fill="none" stroke="#e0c88a" stroke-width="0.7" opacity="0.85"/>
  <path d="M 259.059,283.807 C 264.856,305.444 250.000,320.000 250.000,320.000 C 250.000,320.000 235.144,305.444 240.941,283.807 Z" fill="none" stroke="#e0c88a" stroke-width="0.7" opacity="0.85"/>
  <path d="M 232.500,280.311 C 221.300,299.710 200.503,299.497 200.503,299.497 C 200.503,299.497 200.290,278.700 219.689,267.500 Z" fill="none" stroke="#e0c88a" stroke-width="0.7" opacity="0.85"/>
  <path d="M 216.193,259.059 C 194.556,264.856 180.000,250.000 180.000,250.000 C 180.000,250.000 194.556,235.144 216.193,240.941 Z" fill="none" stroke="#e0c88a" stroke-width="0.7" opacity="0.85"/>
  <path d="M 219.689,232.500 C 200.290,221.300 200.503,200.503 200.503,200.503 C 200.503,200.503 221.300,200.290 232.500,219.689 Z" fill="none" stroke="#e0c88a" stroke-width="0.7" opacity="0.85"/>
  <circle cx="250" cy="250" r="35" fill="none" stroke="#c9a96e" stroke-width="0.6" opacity="0.5"/>
  <circle cx="250" cy="250" r="8" fill="#c9a96e" opacity="0.85"/>
</g>
</svg>